<svg width="591" height="57" viewBox="0 0 591 57" fill="none" xmlns="http://www.w3.org/2000/svg">
<rect y="0.05" width="591" height="56" fill="white"/>
<path d="M37.5834 21.166C34.5001 18.0827 29.5001 18.0827 26.4168 21.166C23.3334 24.2493 23.3334 29.3327 26.4168 32.416L32.0001 37.9993L37.5834 32.3327C40.6667 29.3327 40.6667 24.2493 37.5834 21.166ZM32.0001 28.416C31.0834 28.416 30.3334 27.666 30.3334 26.7493C30.3334 25.8327 31.0834 25.0827 32.0001 25.0827C32.9167 25.0827 33.6667 25.8327 33.6667 26.7493C33.6667 27.666 32.9167 28.416 32.0001 28.416Z" fill="black"/>
<path d="M61.528 28.224C62.3067 28.384 62.8987 28.6987 63.304 29.168C63.7093 29.6267 63.912 30.2293 63.912 30.976C63.912 31.9467 63.5653 32.6933 62.872 33.216C62.1893 33.7387 61.1813 34 59.848 34H54.888V22.8H59.544C60.7387 22.8 61.672 23.0453 62.344 23.536C63.016 24.0267 63.352 24.736 63.352 25.664C63.352 26.2933 63.192 26.8267 62.872 27.264C62.552 27.6907 62.104 28.0107 61.528 28.224ZM56.056 27.872H59.48C60.344 27.872 61.0053 27.696 61.464 27.344C61.9333 26.992 62.168 26.48 62.168 25.808C62.168 25.136 61.9333 24.624 61.464 24.272C61.0053 23.92 60.344 23.744 59.48 23.744H56.056V27.872ZM59.848 33.056C61.7787 33.056 62.744 32.336 62.744 30.896C62.744 29.488 61.7787 28.784 59.848 28.784H56.056V33.056H59.848ZM71.9604 29.648C73.1017 29.9147 73.6724 30.6027 73.6724 31.712C73.6724 32.448 73.4004 33.0133 72.8564 33.408C72.3124 33.8027 71.5017 34 70.4244 34H66.6004V25.584H70.3124C71.2724 25.584 72.0244 25.7707 72.5684 26.144C73.1124 26.5173 73.3844 27.0507 73.3844 27.744C73.3844 28.2027 73.2564 28.5973 73.0004 28.928C72.755 29.248 72.4084 29.488 71.9604 29.648ZM67.7044 29.328H70.2324C70.883 29.328 71.379 29.2053 71.7204 28.96C72.0724 28.7147 72.2484 28.3573 72.2484 27.888C72.2484 27.4187 72.0724 27.0667 71.7204 26.832C71.379 26.5973 70.883 26.48 70.2324 26.48H67.7044V29.328ZM70.3764 33.104C71.1017 33.104 71.6457 32.9867 72.0084 32.752C72.371 32.5173 72.5524 32.1493 72.5524 31.648C72.5524 31.1467 72.387 30.7787 72.0564 30.544C71.7257 30.2987 71.203 30.176 70.4884 30.176H67.7044V33.104H70.3764ZM83.6948 30.144H76.6548C76.7188 31.0187 77.0548 31.728 77.6628 32.272C78.2708 32.8053 79.0388 33.072 79.9668 33.072C80.4894 33.072 80.9694 32.9813 81.4068 32.8C81.8441 32.608 82.2228 32.3307 82.5428 31.968L83.1828 32.704C82.8094 33.152 82.3401 33.4933 81.7748 33.728C81.2201 33.9627 80.6068 34.08 79.9348 34.08C79.0708 34.08 78.3028 33.8987 77.6308 33.536C76.9694 33.1627 76.4521 32.6507 76.0788 32C75.7054 31.3493 75.5188 30.6133 75.5188 29.792C75.5188 28.9707 75.6948 28.2347 76.0468 27.584C76.4094 26.9333 76.9001 26.4267 77.5188 26.064C78.1481 25.7013 78.8521 25.52 79.6308 25.52C80.4094 25.52 81.1081 25.7013 81.7268 26.064C82.3454 26.4267 82.8308 26.9333 83.1828 27.584C83.5348 28.224 83.7108 28.96 83.7108 29.792L83.6948 30.144ZM79.6308 26.496C78.8201 26.496 78.1374 26.7573 77.5828 27.28C77.0388 27.792 76.7294 28.464 76.6548 29.296H82.6228C82.5481 28.464 82.2334 27.792 81.6788 27.28C81.1348 26.7573 80.4521 26.496 79.6308 26.496ZM94.2615 33.008V36.032H93.1895V34H85.6535V36.032H84.5815V33.008H85.0615C85.6268 32.976 86.0108 32.56 86.2135 31.76C86.4162 30.96 86.5548 29.84 86.6295 28.4L86.7415 25.584H92.9495V33.008H94.2615ZM87.6695 28.464C87.6162 29.6587 87.5148 30.6453 87.3655 31.424C87.2162 32.192 86.9495 32.72 86.5655 33.008H91.8135V26.592H87.7655L87.6695 28.464ZM96.4754 25.584H97.6114V32.272L103.227 25.584H104.235V34H103.099V27.312L97.4994 34H96.4754V25.584ZM113.411 26.592H110.227V34H109.091V26.592H105.907V25.584H113.411V26.592ZM122.023 30.144H114.983C115.047 31.0187 115.383 31.728 115.991 32.272C116.599 32.8053 117.367 33.072 118.295 33.072C118.818 33.072 119.298 32.9813 119.735 32.8C120.172 32.608 120.551 32.3307 120.871 31.968L121.511 32.704C121.138 33.152 120.668 33.4933 120.103 33.728C119.548 33.9627 118.935 34.08 118.263 34.08C117.399 34.08 116.631 33.8987 115.959 33.536C115.298 33.1627 114.78 32.6507 114.407 32C114.034 31.3493 113.847 30.6133 113.847 29.792C113.847 28.9707 114.023 28.2347 114.375 27.584C114.738 26.9333 115.228 26.4267 115.847 26.064C116.476 25.7013 117.18 25.52 117.959 25.52C118.738 25.52 119.436 25.7013 120.055 26.064C120.674 26.4267 121.159 26.9333 121.511 27.584C121.863 28.224 122.039 28.96 122.039 29.792L122.023 30.144ZM117.959 26.496C117.148 26.496 116.466 26.7573 115.911 27.28C115.367 27.792 115.058 28.464 114.983 29.296H120.951C120.876 28.464 120.562 27.792 120.007 27.28C119.463 26.7573 118.78 26.496 117.959 26.496ZM134.101 29.648C135.242 29.9147 135.813 30.6027 135.813 31.712C135.813 32.448 135.541 33.0133 134.997 33.408C134.453 33.8027 133.642 34 132.565 34H128.741V25.584H132.453C133.413 25.584 134.165 25.7707 134.709 26.144C135.253 26.5173 135.525 27.0507 135.525 27.744C135.525 28.2027 135.397 28.5973 135.141 28.928C134.896 29.248 134.549 29.488 134.101 29.648ZM129.845 29.328H132.373C133.024 29.328 133.52 29.2053 133.861 28.96C134.213 28.7147 134.389 28.3573 134.389 27.888C134.389 27.4187 134.213 27.0667 133.861 26.832C133.52 26.5973 133.024 26.48 132.373 26.48H129.845V29.328ZM132.517 33.104C133.242 33.104 133.786 32.9867 134.149 32.752C134.512 32.5173 134.693 32.1493 134.693 31.648C134.693 31.1467 134.528 30.7787 134.197 30.544C133.866 30.2987 133.344 30.176 132.629 30.176H129.845V33.104H132.517ZM141.371 25.52C142.47 25.52 143.313 25.7973 143.899 26.352C144.486 26.896 144.779 27.7067 144.779 28.784V34H143.691V32.688C143.435 33.1253 143.057 33.4667 142.555 33.712C142.065 33.9573 141.478 34.08 140.795 34.08C139.857 34.08 139.11 33.856 138.555 33.408C138.001 32.96 137.723 32.368 137.723 31.632C137.723 30.9173 137.979 30.3413 138.491 29.904C139.014 29.4667 139.841 29.248 140.971 29.248H143.643V28.736C143.643 28.0107 143.441 27.4613 143.035 27.088C142.63 26.704 142.038 26.512 141.259 26.512C140.726 26.512 140.214 26.6027 139.723 26.784C139.233 26.9547 138.811 27.1947 138.459 27.504L137.947 26.656C138.374 26.2933 138.886 26.016 139.483 25.824C140.081 25.6213 140.71 25.52 141.371 25.52ZM140.971 33.184C141.611 33.184 142.161 33.04 142.619 32.752C143.078 32.4533 143.419 32.0267 143.643 31.472V30.096H141.003C139.563 30.096 138.843 30.5973 138.843 31.6C138.843 32.0907 139.03 32.48 139.403 32.768C139.777 33.0453 140.299 33.184 140.971 33.184ZM159.42 25.584V34H147.804V25.584H148.94V33.008H153.068V25.584H154.204V33.008H158.284V25.584H159.42ZM169.746 25.52C170.845 25.52 171.688 25.7973 172.274 26.352C172.861 26.896 173.154 27.7067 173.154 28.784V34H172.066V32.688C171.81 33.1253 171.432 33.4667 170.93 33.712C170.44 33.9573 169.853 34.08 169.17 34.08C168.232 34.08 167.485 33.856 166.93 33.408C166.376 32.96 166.098 32.368 166.098 31.632C166.098 30.9173 166.354 30.3413 166.866 29.904C167.389 29.4667 168.216 29.248 169.346 29.248H172.018V28.736C172.018 28.0107 171.816 27.4613 171.41 27.088C171.005 26.704 170.413 26.512 169.634 26.512C169.101 26.512 168.589 26.6027 168.098 26.784C167.608 26.9547 167.186 27.1947 166.834 27.504L166.322 26.656C166.749 26.2933 167.261 26.016 167.858 25.824C168.456 25.6213 169.085 25.52 169.746 25.52ZM169.346 33.184C169.986 33.184 170.536 33.04 170.994 32.752C171.453 32.4533 171.794 32.0267 172.018 31.472V30.096H169.378C167.938 30.096 167.218 30.5973 167.218 31.6C167.218 32.0907 167.405 32.48 167.778 32.768C168.152 33.0453 168.674 33.184 169.346 33.184ZM184.387 33.008V36.032H183.315V34H175.779V36.032H174.707V33.008H175.187C175.752 32.976 176.136 32.56 176.339 31.76C176.541 30.96 176.68 29.84 176.755 28.4L176.867 25.584H183.075V33.008H184.387ZM177.795 28.464C177.741 29.6587 177.64 30.6453 177.491 31.424C177.341 32.192 177.075 32.72 176.691 33.008H181.939V26.592H177.891L177.795 28.464ZM190.936 25.52C191.726 25.52 192.44 25.7013 193.08 26.064C193.72 26.416 194.222 26.9173 194.584 27.568C194.947 28.2187 195.128 28.96 195.128 29.792C195.128 30.6347 194.947 31.3813 194.584 32.032C194.222 32.6827 193.72 33.1893 193.08 33.552C192.451 33.904 191.736 34.08 190.936 34.08C190.254 34.08 189.635 33.9413 189.08 33.664C188.536 33.376 188.088 32.96 187.736 32.416V37.104H186.6V25.584H187.688V27.248C188.03 26.6933 188.478 26.2667 189.032 25.968C189.598 25.6693 190.232 25.52 190.936 25.52ZM190.856 33.072C191.443 33.072 191.976 32.9387 192.456 32.672C192.936 32.3947 193.31 32.0053 193.576 31.504C193.854 31.0027 193.992 30.432 193.992 29.792C193.992 29.152 193.854 28.5867 193.576 28.096C193.31 27.5947 192.936 27.2053 192.456 26.928C191.976 26.6507 191.443 26.512 190.856 26.512C190.259 26.512 189.72 26.6507 189.24 26.928C188.771 27.2053 188.398 27.5947 188.12 28.096C187.854 28.5867 187.72 29.152 187.72 29.792C187.72 30.432 187.854 31.0027 188.12 31.504C188.398 32.0053 188.771 32.3947 189.24 32.672C189.72 32.9387 190.259 33.072 190.856 33.072ZM204.929 30.144H197.889C197.953 31.0187 198.289 31.728 198.897 32.272C199.505 32.8053 200.273 33.072 201.201 33.072C201.724 33.072 202.204 32.9813 202.641 32.8C203.078 32.608 203.457 32.3307 203.777 31.968L204.417 32.704C204.044 33.152 203.574 33.4933 203.009 33.728C202.454 33.9627 201.841 34.08 201.169 34.08C200.305 34.08 199.537 33.8987 198.865 33.536C198.204 33.1627 197.686 32.6507 197.313 32C196.94 31.3493 196.753 30.6133 196.753 29.792C196.753 28.9707 196.929 28.2347 197.281 27.584C197.644 26.9333 198.134 26.4267 198.753 26.064C199.382 25.7013 200.086 25.52 200.865 25.52C201.644 25.52 202.342 25.7013 202.961 26.064C203.58 26.4267 204.065 26.9333 204.417 27.584C204.769 28.224 204.945 28.96 204.945 29.792L204.929 30.144ZM200.865 26.496C200.054 26.496 199.372 26.7573 198.817 27.28C198.273 27.792 197.964 28.464 197.889 29.296H203.857C203.782 28.464 203.468 27.792 202.913 27.28C202.369 26.7573 201.686 26.496 200.865 26.496ZM210.98 34.08C210.148 34.08 209.401 33.8987 208.74 33.536C208.089 33.1733 207.577 32.6667 207.204 32.016C206.83 31.3547 206.644 30.6133 206.644 29.792C206.644 28.9707 206.83 28.2347 207.204 27.584C207.577 26.9333 208.089 26.4267 208.74 26.064C209.401 25.7013 210.148 25.52 210.98 25.52C211.705 25.52 212.35 25.664 212.916 25.952C213.492 26.2293 213.945 26.64 214.276 27.184L213.428 27.76C213.15 27.344 212.798 27.0347 212.372 26.832C211.945 26.6187 211.481 26.512 210.98 26.512C210.372 26.512 209.822 26.6507 209.332 26.928C208.852 27.1947 208.473 27.5787 208.196 28.08C207.929 28.5813 207.796 29.152 207.796 29.792C207.796 30.4427 207.929 31.0187 208.196 31.52C208.473 32.0107 208.852 32.3947 209.332 32.672C209.822 32.9387 210.372 33.072 210.98 33.072C211.481 33.072 211.945 32.9707 212.372 32.768C212.798 32.5653 213.15 32.256 213.428 31.84L214.276 32.416C213.945 32.96 213.492 33.376 212.916 33.664C212.34 33.9413 211.694 34.08 210.98 34.08Z" fill="#737373"/>
</svg>
