<svg width="16" height="16" viewBox="0 0 16 16" fill="none" xmlns="http://www.w3.org/2000/svg">
<path fill-rule="evenodd" clip-rule="evenodd" d="M10.198 2.27665L10.0427 2.50531C11.2227 3.04131 12.0227 4.05598 12.0227 5.21798H4.22733C4.22733 4.05598 5.02667 3.04131 6.20733 2.50531L6.05133 2.27665L5.896 2.05131L5.54933 1.54398C5.53921 1.5292 5.53217 1.51253 5.52863 1.49497C5.52509 1.47741 5.52512 1.45932 5.52873 1.44177C5.53234 1.42422 5.53945 1.40758 5.54963 1.39284C5.55981 1.3781 5.57286 1.36557 5.588 1.35598C5.61893 1.33624 5.65627 1.32917 5.69228 1.33625C5.72828 1.34332 5.76018 1.364 5.78133 1.39398L6.31 2.16531L6.46867 2.39731C6.99831 2.19965 7.55934 2.09937 8.12467 2.10131C8.71667 2.10131 9.27733 2.20798 9.78067 2.39731L10.4687 1.39398C10.4894 1.36382 10.521 1.34296 10.5569 1.33586C10.5928 1.32875 10.63 1.33598 10.6607 1.35598C10.676 1.36538 10.6893 1.37781 10.6996 1.39252C10.71 1.40722 10.7172 1.42389 10.7209 1.4415C10.7246 1.4591 10.7246 1.47727 10.721 1.4949C10.7174 1.51252 10.7103 1.52922 10.7 1.54398L10.3533 2.05065L10.1973 2.27665H10.198ZM9.378 3.72731C9.378 3.95198 9.56467 4.13398 9.79533 4.13398C9.84949 4.13478 9.90328 4.12488 9.95361 4.10486C10.0039 4.08485 10.0498 4.0551 10.0887 4.01733C10.1275 3.97956 10.1585 3.9345 10.1799 3.88474C10.2013 3.83497 10.2126 3.78148 10.2133 3.72731C10.2127 3.67313 10.2014 3.61959 10.1801 3.56979C10.1587 3.51998 10.1277 3.47489 10.0889 3.4371C10.05 3.39931 10.0041 3.36957 9.95372 3.34959C9.90334 3.3296 9.84952 3.31977 9.79533 3.32065C9.74115 3.31977 9.68732 3.3296 9.63695 3.34959C9.58658 3.36957 9.54065 3.39931 9.50181 3.4371C9.46297 3.47489 9.43197 3.51998 9.41061 3.56979C9.38925 3.61959 9.37794 3.67313 9.37733 3.72731H9.378ZM6.45467 4.13398C6.4005 4.13478 6.34672 4.12488 6.29638 4.10486C6.24605 4.08485 6.20016 4.0551 6.16133 4.01733C6.12251 3.97956 6.09151 3.9345 6.07012 3.88474C6.04873 3.83497 6.03736 3.78148 6.03667 3.72731C6.03667 3.50198 6.22333 3.32065 6.45467 3.32065C6.68533 3.32065 6.87267 3.50198 6.87267 3.72731C6.87267 3.95198 6.686 4.13398 6.45467 4.13398Z" fill="black"/>
<path d="M4.228 5.75928H12.0227V11.7206C12.0227 12.1939 11.628 12.5793 11.1413 12.5793H10.504C10.526 12.6506 10.5387 12.7259 10.5387 12.8046V14.5206C10.5387 14.9693 10.164 15.3339 9.70267 15.3339C9.24133 15.3339 8.86733 14.9693 8.86733 14.5206V12.8046C8.86733 12.7253 8.87933 12.6513 8.90067 12.5793H7.34933C7.37067 12.6506 7.38333 12.7259 7.38333 12.8046V14.5206C7.38333 14.9693 7.00867 15.3339 6.548 15.3339C6.08667 15.3339 5.712 14.9693 5.712 14.5206V12.8046C5.712 12.7253 5.724 12.6513 5.74533 12.5793H5.11C4.62333 12.5793 4.228 12.1939 4.228 11.7206V5.75928ZM2.83533 5.75928C2.374 5.75928 2 6.12328 2 6.57194V10.0493C2 10.4979 2.37333 10.8626 2.83533 10.8626C3.29667 10.8626 3.67067 10.4979 3.67067 10.0493V6.57194C3.67067 6.12328 3.29667 5.75928 2.83533 5.75928ZM12.58 6.57194C12.58 6.12328 12.9533 5.75928 13.4153 5.75928C13.876 5.75928 14.25 6.12328 14.25 6.57194V10.0493C14.25 10.4979 13.8767 10.8626 13.4153 10.8626C12.9533 10.8626 12.5793 10.4979 12.5793 10.0493V6.57194H12.58Z" fill="black"/>
</svg>
