<svg width="16" height="16" viewBox="0 0 16 16" fill="none" xmlns="http://www.w3.org/2000/svg">
<path fill-rule="evenodd" clip-rule="evenodd" d="M9.51199 2.82069C9.94466 2.26202 10.272 1.47269 10.154 0.666687C9.44666 0.71602 8.61999 1.16802 8.13733 1.75802C7.69733 2.29269 7.33666 3.08735 7.47732 3.85935C8.25066 3.88335 9.04866 3.41935 9.51199 2.82069ZM13.3333 10.4014C13.024 11.0914 12.8747 11.3994 12.4767 12.01C11.9207 12.8634 11.1367 13.9247 10.1633 13.9327C9.30066 13.942 9.07799 13.3667 7.90666 13.374C6.73466 13.3807 6.49066 13.9434 5.62599 13.9347C4.65399 13.926 3.91133 12.968 3.35533 12.1154C1.79933 9.73269 1.63533 6.93602 2.59533 5.44869C3.27733 4.39135 4.35333 3.77335 5.36533 3.77335C6.39399 3.77335 7.04199 4.34135 7.89399 4.34135C8.72066 4.34135 9.22399 3.77202 10.414 3.77202C11.3153 3.77202 12.27 4.26535 12.9493 5.11735C10.7227 6.34535 11.0827 9.54535 13.3333 10.4007V10.4014Z" fill="black"/>
</svg>
