<svg width="80" height="80" viewBox="0 0 80 80" fill="none" xmlns="http://www.w3.org/2000/svg">
<path d="M64.2414 0H15.7586C7.05535 0 0 7.05535 0 15.7586V64.2414C0 72.9447 7.05535 80 15.7586 80H64.2414C72.9447 80 80 72.9447 80 64.2414V15.7586C80 7.05535 72.9447 0 64.2414 0Z" fill="#142328"/>
<path d="M38.3413 53.6011C38.3512 52.7771 38.116 51.9689 37.6654 51.279C37.2149 50.5891 36.5694 50.0488 35.811 49.7266C35.0526 49.4044 34.2156 49.315 33.4063 49.4696C32.597 49.6243 31.8519 50.0161 31.2657 50.5952C30.6796 51.1743 30.2789 51.9146 30.1144 52.722C29.95 53.5294 30.0293 54.3674 30.3423 55.1296C30.6553 55.8918 31.1878 56.5438 31.8722 57.0026C32.5566 57.4615 33.362 57.7065 34.1859 57.7066C34.7295 57.7138 35.269 57.613 35.7732 57.4099C36.2773 57.2067 36.7361 56.9054 37.1228 56.5234C37.5094 56.1413 37.8163 55.6863 38.0255 55.1846C38.2347 54.6829 38.342 54.1446 38.3413 53.6011ZM41.7335 46.8916V60.3604H38.2765V59.1482C37.0452 60.1445 35.5053 60.6807 33.9216 60.6647C32.9778 60.6898 32.0386 60.5256 31.1594 60.1817C30.2801 59.8379 29.4787 59.3214 28.8023 58.6628C28.126 58.0042 27.5884 57.2167 27.2213 56.3469C26.8543 55.4771 26.6651 54.5426 26.6651 53.5986C26.6651 52.6545 26.8543 51.72 27.2213 50.8502C27.5884 49.9804 28.126 49.193 28.8023 48.5343C29.4787 47.8757 30.2801 47.3592 31.1594 47.0154C32.0386 46.6716 32.9778 46.5073 33.9216 46.5324C35.5167 46.5255 37.0641 47.076 38.2964 48.0888V46.8916H41.7335ZM53.207 57.2875H50.608C49.8148 57.2875 49.306 56.9433 49.306 56.23V49.9246H53.207V46.8916H49.3209V43.0505H45.829V46.8916H43.2051V49.9395H45.834V57.098C45.834 58.9038 47.136 60.3355 49.4806 60.3355H53.2219L53.207 57.2875ZM61.0837 60.6797C65.0745 60.6797 67.3293 58.814 67.3293 56.23C67.3293 54.3942 65.9974 53.0224 63.2088 52.4338L60.2607 51.8401C58.5496 51.5308 58.0109 51.2166 58.0109 50.598C58.0109 49.7849 58.834 49.286 60.3554 49.286C62.0016 49.286 63.2088 49.725 63.558 51.2166H67.015C66.8205 48.418 64.7602 46.5474 60.5749 46.5474C56.9633 46.5474 54.4241 48.014 54.4241 50.8424C54.4241 52.8029 55.8209 54.08 58.834 54.7035L62.1313 55.4518C63.4283 55.7012 63.7775 56.0404 63.7775 56.5692C63.7775 57.4122 62.7798 57.941 61.2085 57.941C59.2131 57.941 58.0707 57.507 57.6267 56.0105H54.1348C54.6337 58.814 56.7687 60.6797 61.0788 60.6797H61.0837ZM12.6607 42.1176H25.6956V45.2254H16.1826V49.6801H25.4412V52.6732H16.1826V57.1628H25.6956V60.2756H12.6607V42.1176Z" fill="#06C167"/>
<path d="M67.03 26.3441V23.8997H66.1021C65.4548 23.8738 64.8122 24.0216 64.2412 24.3278C63.6702 24.6339 63.1914 25.0872 62.8547 25.6407V24.0045H60.2058V37.2688H62.8796V29.7263C62.8796 27.671 64.1517 26.3441 65.9026 26.3441H67.03ZM47.7945 29.4319C47.9832 28.4779 48.4971 27.6188 49.2486 27.0015C50 26.3841 50.9424 26.0466 51.915 26.0466C52.8875 26.0466 53.8299 26.3841 54.5814 27.0015C55.3328 27.6188 55.8467 28.4779 56.0354 29.4319H47.7945ZM51.9798 23.7451C51.0703 23.7372 50.1683 23.9096 49.3258 24.2523C48.4834 24.595 47.7172 25.1013 47.0715 25.7419C46.4258 26.3824 45.9135 27.1446 45.5641 27.9843C45.2147 28.824 45.0352 29.7246 45.0359 30.6342C45.0359 34.59 48.1636 37.5532 52.2192 37.5532C53.3454 37.5759 54.4609 37.3309 55.4738 36.8383C56.4868 36.3457 57.3683 35.6196 58.0458 34.7197L56.1103 33.313C55.6694 33.9305 55.0847 34.4314 54.4067 34.7721C53.7287 35.1128 52.9779 35.2832 52.2192 35.2684C51.1431 35.2823 50.0978 34.9091 49.2738 34.2169C48.4497 33.5247 47.9017 32.5595 47.7296 31.4972H58.7043V30.6342C58.7043 26.6833 55.8459 23.7451 51.9499 23.7451H51.9798ZM36.6951 35.2684C35.7858 35.2625 34.8985 34.9875 34.1453 34.478C33.3921 33.9684 32.8066 33.2473 32.4627 32.4055C32.1188 31.5636 32.0319 30.6388 32.2129 29.7476C32.3939 28.8564 32.8348 28.0388 33.4799 27.3979C34.125 26.7569 34.9454 26.3214 35.8378 26.1461C36.7301 25.9709 37.6543 26.0638 38.4939 26.4132C39.3335 26.7625 40.0509 27.3527 40.5555 28.1092C41.0601 28.8657 41.3294 29.7547 41.3294 30.6641C41.3281 31.2709 41.2071 31.8715 40.9734 32.4315C40.7397 32.9915 40.3978 33.4998 39.9673 33.9275C39.5369 34.3552 39.0263 34.6938 38.4648 34.9239C37.9033 35.154 37.3019 35.2711 36.6951 35.2684ZM29.4319 37.2688H32.0808V35.6027C32.7143 36.236 33.4664 36.7382 34.2941 37.0806C35.1218 37.423 36.0089 37.5988 36.9047 37.5981C37.8306 37.6229 38.7521 37.462 39.6147 37.1248C40.4774 36.7876 41.2638 36.281 41.9275 35.6349C42.5912 34.9888 43.1187 34.2163 43.4788 33.363C43.839 32.5097 44.0246 31.5928 44.0246 30.6666C44.0246 29.7403 43.839 28.8235 43.4788 27.9702C43.1187 27.1168 42.5912 26.3443 41.9275 25.6982C41.2638 25.0521 40.4774 24.5455 39.6147 24.2083C38.7521 23.8712 37.8306 23.7103 36.9047 23.7351C36.0127 23.7346 35.1294 23.9107 34.3058 24.2531C33.4821 24.5956 32.7344 25.0977 32.1058 25.7305V19.0609H29.4319V37.2688ZM20.0037 35.1337C22.5728 35.1337 24.5582 33.1833 24.5582 30.2999V19.0609H27.3418V37.2688H24.5832V35.5777C23.9429 36.2228 23.179 36.732 22.3373 37.0749C21.4955 37.4177 20.5933 37.5872 19.6845 37.5731C15.6937 37.5731 12.6607 34.7347 12.6607 30.4446V19.0609H15.4642V30.2999C15.4642 33.2381 17.4247 35.1337 20.0237 35.1337" fill="#F6F0EA"/>
</svg>
