<svg width="16" height="15" viewBox="0 0 16 15" fill="none" xmlns="http://www.w3.org/2000/svg">
<path d="M12.267 6.66699H9.73299L8.79999 8.86699C8.33299 8.66699 7.79999 8.33299 7.26699 7.93299C8.13299 7.06699 8.86699 5.93299 9.26699 4.66699H10.667V2.66699H6.66699V0.666992H4.66699V2.66699H0.666992V4.66699H2.13299C2.53299 5.93299 3.26699 7.06699 4.06699 7.93299C2.66699 8.86699 1.33299 9.39999 1.33299 9.39999V11.533L1.99999 11.267C2.13299 11.2 3.86699 10.6 5.66699 9.26699C6.46699 9.86699 7.33299 10.333 7.99999 10.667L6.19999 14.667H8.39999L9.26699 12.667H12.733L13.6 14.667H15.8L12.267 6.66699ZM7.06699 4.66699C6.72499 5.41277 6.25066 6.09038 5.66699 6.66699C5.13299 6.06699 4.59999 5.39999 4.26699 4.66699H7.06699ZM10.133 10.667L11 8.73299L11.867 10.667H10.133Z" fill="white"/>
</svg>
