<svg width="419" height="848" viewBox="0 0 419 848" fill="none" xmlns="http://www.w3.org/2000/svg">
<g clip-path="url(#clip0)">
<path d="M347.868 0.326874H-246.012L-343.885 66.8839C-349.354 70.6231 -353.12 76.3752 -354.36 82.8828C-355.601 89.3904 -354.214 96.1244 -350.504 101.613L-165.605 373.418C-163.753 376.14 -161.383 378.471 -158.63 380.277C-155.877 382.083 -152.795 383.328 -149.561 383.943C-146.326 384.558 -143.002 384.529 -139.779 383.859C-136.556 383.189 -133.496 381.89 -130.774 380.037L352.362 51.4806C357.826 47.7379 361.589 41.9862 362.829 35.4802C364.069 28.9742 362.685 22.2418 358.981 16.7516L347.868 0.326874Z" fill="#156A41"/>
<path d="M-290.424 0.326874L-330.832 27.8036C-336.325 31.5477 -340.107 37.3188 -341.348 43.8496C-342.589 50.3804 -341.187 57.1368 -337.45 62.6348L-152.531 334.44C-148.798 339.916 -143.048 343.69 -136.538 344.935C-130.029 346.179 -123.292 344.793 -117.802 341.079L365.395 12.4003C369.727 9.46683 373.022 5.24191 374.813 0.326874H-290.424Z" fill="#5A0A00"/>
<path d="M62.95 19.1622L56.2699 14.3002C50.5182 10.0397 45.0584 5.3988 39.927 0.4086H-169.956C-172.063 4.23461 -173.546 8.37244 -174.349 12.6659L-183.807 63.2272L-123.788 92.563C-104.205 102.113 -83.4269 108.984 -62.0117 112.992C-40.5961 116.998 -18.7379 118.097 2.97168 116.26L69.5485 110.642L78.9865 59.979C80.4196 52.356 79.6754 44.4834 76.8389 37.2641C74.0025 30.0447 69.1889 23.771 62.95 19.1622Z" fill="#FA9269"/>
<path d="M-41.4197 1.81815C-62.1096 -2.05776 -83.5033 1.64811 -101.684 12.2573L-113.042 18.8149C-126.12 26.4566 -140.464 31.6876 -155.391 34.2591C-162.4 35.4712 -168.872 38.7981 -173.936 43.7934C-179.001 48.7887 -182.417 55.2135 -183.725 62.2057C-185.136 69.709 -184.045 77.4678 -180.621 84.2913C-177.196 91.1148 -171.627 96.6259 -164.768 99.9786L-128.589 117.65C-109.016 127.205 -88.2431 134.077 -66.8329 138.078C-45.4103 142.084 -23.5454 143.184 -1.82907 141.347L38.2723 137.956C45.879 137.313 53.0651 134.194 58.7292 129.076C64.3932 123.958 68.2226 117.124 69.6302 109.621C70.9329 102.65 70.0803 95.4469 67.1861 88.9724C64.292 82.4978 59.4935 77.0589 53.4303 73.3803L51.8368 72.3997C38.7401 64.4534 27.189 54.2034 17.7415 42.1446L11.327 33.9731C-1.76974 17.2079 -20.5175 5.77905 -41.4197 1.81815Z" fill="#FFE3AC"/>
<path d="M106.606 0.326874C98.9403 12.4449 94.6672 26.3981 94.2324 40.7305C93.7976 55.063 97.2171 69.2496 104.134 81.81C111.051 94.3704 121.212 104.844 133.557 112.139C145.901 119.434 159.978 123.282 174.317 123.282C188.655 123.282 202.732 119.434 215.076 112.139C227.421 104.844 237.582 94.3704 244.499 81.81C251.416 69.2496 254.835 55.063 254.401 40.7305C253.966 26.3981 249.693 12.4449 242.027 0.326874H106.606Z" fill="black"/>
<path d="M110.528 0.326874C104.794 12.5378 102.235 25.9991 103.09 39.4624C103.945 52.9258 108.185 65.9554 115.418 77.3431C122.651 88.7307 132.642 98.1077 144.465 104.605C156.287 111.101 169.559 114.508 183.05 114.508C196.54 114.508 209.812 111.101 221.635 104.605C233.458 98.1077 243.449 88.7307 250.682 77.3431C257.915 65.9554 262.155 52.9258 263.01 39.4624C263.865 25.9991 261.306 12.5378 255.571 0.326874H110.528Z" fill="#FFFAF0"/>
<path d="M204.112 0.326874C210.752 6.34432 216.084 13.6627 219.776 21.8274C223.469 29.9922 225.444 38.829 225.578 47.7891C225.712 56.7491 224.003 65.6411 220.556 73.9127C217.109 82.1843 211.999 89.659 205.542 95.8724C214.636 92.5504 222.879 87.2496 229.675 80.3531C236.471 73.4566 241.65 65.1365 244.839 55.9941C248.027 46.8517 249.144 37.1152 248.111 27.4881C247.077 17.8611 243.917 8.58388 238.861 0.326874H204.112Z" fill="#66D19E"/>
<path d="M204.112 0.326874H127.218C121.561 9.5631 118.288 20.0601 117.692 30.8747C117.097 41.6892 119.197 52.4823 123.805 62.284C128.413 72.0857 135.385 80.5889 144.092 87.0294C152.8 93.4698 162.972 97.6458 173.693 99.1819C184.453 100.766 195.438 99.6285 205.644 95.8724C212.101 89.659 217.211 82.1843 220.658 73.9127C224.105 65.6411 225.814 56.7491 225.68 47.7891C225.546 38.829 223.571 29.9922 219.879 21.8274C216.186 13.6627 210.854 6.34432 204.214 0.326874H204.112Z" fill="#ADDEC9"/>
<path d="M25.1571 92.4608C29.5234 92.4608 33.0629 88.9212 33.0629 84.5548C33.0629 80.1885 29.5234 76.6489 25.1571 76.6489C20.7908 76.6489 17.2512 80.1885 17.2512 84.5548C17.2512 88.9212 20.7908 92.4608 25.1571 92.4608Z" fill="#B18977"/>
<path d="M13.0225 120.898C14.8728 120.898 16.3728 119.398 16.3728 117.547C16.3728 115.697 14.8728 114.197 13.0225 114.197C11.1722 114.197 9.67224 115.697 9.67224 117.547C9.67224 119.398 11.1722 120.898 13.0225 120.898Z" fill="#B18977"/>
<path d="M18.048 88.5181C22.1435 88.5181 25.4635 85.1979 25.4635 81.1024C25.4635 77.0068 22.1435 73.6867 18.048 73.6867C13.9525 73.6867 10.6324 77.0068 10.6324 81.1024C10.6324 85.1979 13.9525 88.5181 18.048 88.5181Z" fill="#FFE3AC"/>
<path d="M-55.6788 57.4662C-76.3688 53.6015 -97.7586 57.3067 -115.943 67.9054L-127.22 74.4834C-140.309 82.0932 -154.649 87.3092 -169.568 89.8868C-176.585 91.0988 -183.061 94.4308 -188.127 99.4344C-193.193 104.438 -196.604 110.873 -197.903 117.874L-207.688 170.049L-147.648 199.385C-128.076 208.942 -107.303 215.813 -85.8928 219.814C-64.4723 223.837 -42.6061 224.943 -20.8889 223.103L45.6674 217.485L55.4731 165.208C56.7758 158.236 55.9233 151.034 53.0291 144.559C50.1349 138.085 45.3365 132.646 39.2733 128.967L37.6798 128.007C24.591 120.042 13.0419 109.786 3.5845 97.7314L-2.83005 89.5599C-15.9585 72.7923 -34.7465 61.3828 -55.6788 57.4662Z" fill="#FA9269"/>
<path d="M-65.5867 110.418C-86.2741 106.536 -107.668 110.234 -125.851 120.836L-137.128 127.414C-150.215 135.035 -164.555 140.265 -179.476 142.859C-186.488 144.07 -192.962 147.396 -198.031 152.391C-203.099 157.386 -206.518 163.811 -207.831 170.805C-209.235 178.308 -208.139 186.064 -204.711 192.883C-201.283 199.703 -195.712 205.209 -188.853 208.558L-152.694 226.249C-133.113 235.803 -112.334 242.674 -90.9181 246.678C-69.5046 250.701 -47.6451 251.807 -25.9348 249.967L14.187 246.576C21.7912 245.932 28.9744 242.813 34.635 237.694C40.2956 232.576 44.121 225.742 45.5244 218.241C46.8261 211.272 45.9753 204.072 43.0851 197.598C40.195 191.124 35.4025 185.684 29.345 182L27.7516 181.04C14.6486 173.094 3.09631 162.836 -6.34373 150.765L-12.7788 142.593C-25.8796 125.799 -44.6552 114.359 -65.5867 110.418Z" fill="#FFE3AC"/>
<path d="M-0.21521 225.636C2.25564 225.636 4.25867 223.633 4.25867 221.162C4.25867 218.691 2.25564 216.688 -0.21521 216.688C-2.68606 216.688 -4.68909 218.691 -4.68909 221.162C-4.68909 223.633 -2.68606 225.636 -0.21521 225.636Z" fill="#B18977"/>
<path d="M21.4187 210.069C23.6978 210.069 25.5453 208.222 25.5453 205.943C25.5453 203.664 23.6978 201.816 21.4187 201.816C19.1397 201.816 17.2921 203.664 17.2921 205.943C17.2921 208.222 19.1397 210.069 21.4187 210.069Z" fill="#B18977"/>
<path d="M304.314 11.8487H318.512V19.1418H304.314V11.8487ZM95.0433 120.939H102.929V134.83H95.0433V120.939Z" fill="#FA9269"/>
<path d="M172.059 45.7401L163.561 43.4521C161.664 42.9466 159.934 41.9494 158.546 40.5612C157.158 39.173 156.16 37.4431 155.655 35.5461L153.367 27.0477C153.301 26.8014 153.303 26.5421 153.371 26.2965C153.439 26.0509 153.572 25.828 153.755 25.6509C153.939 25.4738 154.166 25.349 154.414 25.2893C154.661 25.2295 154.921 25.2371 155.165 25.3113L163.724 27.8853C165.497 28.4233 167.109 29.3912 168.417 30.7028C169.725 32.0144 170.688 33.6291 171.222 35.4031L173.796 43.9424C173.87 44.1862 173.877 44.4455 173.818 44.6933C173.758 44.9411 173.633 45.1685 173.456 45.3518C173.279 45.5351 173.056 45.6678 172.81 45.7361C172.565 45.8044 172.305 45.8057 172.059 45.7401ZM181.661 42.2059L175.9 32.1754C174.605 29.9331 173.924 27.3897 173.924 24.8006C173.924 22.2115 174.605 19.668 175.9 17.4258L181.661 7.39522C181.826 7.10196 182.066 6.85793 182.357 6.68812C182.648 6.51832 182.979 6.42883 183.315 6.42883C183.652 6.42883 183.983 6.51832 184.273 6.68812C184.564 6.85793 184.805 7.10196 184.97 7.39522L190.527 17.7731C191.673 19.9234 192.273 22.3229 192.273 24.7597C192.273 27.1966 191.673 29.596 190.527 31.7464L184.97 42.1038C184.814 42.4024 184.581 42.6541 184.295 42.833C184.01 43.012 183.682 43.1118 183.345 43.1222C183.008 43.1326 182.675 43.0532 182.379 42.8922C182.083 42.7312 181.835 42.4943 181.661 42.2059Z" fill="#05A357"/>
<path d="M291.607 710.289L287.358 704.161C295.551 704.202 303.591 701.944 310.565 697.644C314.239 695.375 317.257 692.185 319.317 688.39C321.378 684.595 322.41 680.327 322.311 676.01C322.243 673.442 321.782 670.899 320.943 668.472H41.7042L-38.2737 674.6C-40.022 674.734 -41.7789 674.501 -43.4321 673.917C-45.0854 673.333 -46.5987 672.411 -47.8752 671.209L-50.8782 668.41H-110.264C-110.379 669.431 -110.853 670.378 -111.601 671.081C-112.35 671.785 -113.324 672.199 -114.35 672.251L-228.423 679.381C-228.965 679.381 -229.484 679.596 -229.868 679.979C-230.251 680.362 -230.466 680.882 -230.466 681.423V682.567C-230.466 683.109 -230.251 683.629 -229.868 684.012C-229.484 684.395 -228.965 684.61 -228.423 684.61L-112.164 681.791C-111.595 681.778 -111.029 681.876 -110.499 682.081C-109.968 682.287 -109.483 682.594 -109.071 682.987C-108.66 683.38 -108.329 683.85 -108.099 684.37C-107.869 684.89 -107.744 685.451 -107.731 686.02V686.551C-107.703 687.702 -108.133 688.816 -108.926 689.651C-109.718 690.486 -110.809 690.972 -111.96 691.005L-228.219 693.824C-228.761 693.824 -229.28 694.039 -229.663 694.422C-230.046 694.805 -230.262 695.325 -230.262 695.867V697.031C-230.262 697.573 -230.046 698.092 -229.663 698.476C-229.28 698.859 -228.761 699.074 -228.219 699.074L-113.921 700.688C-112.8 700.703 -111.729 701.153 -110.933 701.941C-110.137 702.73 -109.678 703.796 -109.651 704.917C-109.638 705.497 -109.741 706.075 -109.955 706.615C-110.169 707.155 -110.489 707.646 -110.897 708.06C-111.305 708.474 -111.792 708.801 -112.329 709.022C-112.866 709.244 -113.442 709.355 -114.023 709.35L-227.197 708.43C-227.757 708.416 -228.313 708.516 -228.831 708.726C-229.35 708.935 -229.82 709.248 -230.213 709.647C-230.605 710.045 -230.912 710.52 -231.114 711.041C-231.315 711.563 -231.408 712.121 -231.385 712.679V714.273L-107.241 728.573C-98.6725 729.558 -89.9926 728.557 -81.8732 725.649C-73.7537 722.74 -66.4127 718.002 -60.4183 711.801L-47.5892 698.502C-46.37 697.24 -44.9007 696.247 -43.2755 695.585C-41.6503 694.924 -39.905 694.609 -38.1512 694.661L105.544 698.747L89.2007 729.615C88.5819 730.793 88.3254 732.127 88.4636 733.45C88.6017 734.774 89.1283 736.027 89.977 737.051C91.8207 739.268 94.205 740.973 96.8995 742C99.5941 743.027 102.508 743.342 105.36 742.914C108.296 742.461 111.164 741.644 113.899 740.483L111.611 742.873L110.896 743.69H110.794C108.336 746.532 106.56 749.898 105.601 753.53C104.641 757.162 104.524 760.966 105.258 764.65L108.22 779.502C108.199 779.638 108.199 779.775 108.22 779.911L110.712 792.168L113.919 808.225C114.056 808.905 114.33 809.551 114.723 810.123C115.115 810.695 115.62 811.182 116.206 811.554C116.792 811.926 117.447 812.176 118.131 812.288C118.816 812.401 119.517 812.374 120.191 812.209C123.661 811.348 126.961 809.912 129.956 807.959C125.292 820.745 122.639 834.177 122.091 847.775H278.431L301.004 777.664C304.655 766.457 305.707 754.566 304.079 742.892C302.45 731.219 298.185 720.069 291.607 710.289Z" fill="#156A41"/>
<path d="M263.845 743.609V688.206H181.456L140.476 731.106C137.92 733.786 136.045 737.04 135.007 740.594C133.969 744.149 133.799 747.901 134.511 751.535L142.683 792.393C142.81 793.032 143.066 793.638 143.434 794.176C143.802 794.713 144.275 795.17 144.825 795.52C145.375 795.869 145.99 796.103 146.633 796.209C147.276 796.314 147.934 796.287 148.566 796.131C154.552 794.646 159.937 791.36 163.996 786.717C168.055 782.073 170.591 776.297 171.262 770.166L172.57 757.582L263.845 743.609Z" fill="#5A0A00"/>
<path d="M172.57 757.5L171.691 741.566C171.522 738.529 172.279 735.512 173.862 732.914C175.445 730.317 177.78 728.262 180.557 727.021L253.549 694.334L263.763 742.281L172.57 757.5ZM165.747 704.631L160.864 718.4C159.514 722.189 157.062 725.488 153.822 727.873C150.582 730.258 146.702 731.618 142.683 731.78L139.7 731.903L165.747 704.631Z" fill="black"/>
<path d="M144.072 791.453C144.982 790.174 145.62 788.722 145.947 787.186C146.274 785.651 146.282 784.065 145.972 782.526L143.051 768.225C142.862 767.211 142.37 766.278 141.641 765.549C140.912 764.82 139.979 764.329 138.965 764.14C138.726 764.091 138.48 764.102 138.246 764.172C138.013 764.242 137.801 764.368 137.629 764.54C137.457 764.713 137.33 764.925 137.26 765.158C137.191 765.391 137.18 765.638 137.228 765.876L142.376 791.106C142.39 791.301 142.468 791.487 142.597 791.634C142.727 791.782 142.901 791.883 143.093 791.922C143.285 791.961 143.484 791.937 143.661 791.852C143.838 791.767 143.982 791.627 144.072 791.453Z" fill="#993F21"/>
<path d="M144.358 671.659L119.558 718.645C118.979 719.751 118.739 721.003 118.866 722.245C118.993 723.487 119.482 724.665 120.273 725.631C122.004 727.713 124.243 729.312 126.773 730.275C129.303 731.238 132.039 731.531 134.716 731.127C139.744 730.369 144.535 728.481 148.728 725.604C152.921 722.727 156.407 718.937 158.924 714.518L169.138 696.623H202.906V671.659H143.663" fill="#5A0A00"/>
<path d="M121.703 717.868C123.218 717.456 124.631 716.735 125.854 715.751C127.078 714.767 128.085 713.54 128.812 712.148L135.615 699.135C136.085 698.247 136.281 697.24 136.18 696.24C136.078 695.24 135.682 694.293 135.043 693.517C134.889 693.331 134.691 693.186 134.468 693.094C134.244 693.003 134.002 692.967 133.762 692.991C133.521 693.016 133.291 693.099 133.09 693.233C132.89 693.368 132.725 693.549 132.611 693.762L120.661 716.581C120.578 716.737 120.542 716.914 120.559 717.09C120.576 717.266 120.644 717.433 120.755 717.57C120.866 717.708 121.015 717.809 121.184 717.862C121.352 717.915 121.533 717.917 121.703 717.868Z" fill="#993F21"/>
<path d="M308.972 700.361L259.82 628.492C257.485 625.082 254.354 622.292 250.699 620.363C247.044 618.433 242.973 617.423 238.84 617.42H210.894V659.34L243.58 700.198V735.703L183.172 795.907L189.914 848H290.994L318.124 763.772C321.533 753.204 322.481 741.996 320.895 731.006C319.309 720.016 315.23 709.533 308.972 700.361Z" fill="#C14F29"/>
<path d="M-66.792 638.196L-182.5 657.236V658.747C-182.484 659.266 -182.365 659.777 -182.151 660.249C-181.936 660.722 -181.63 661.147 -181.25 661.501C-180.87 661.854 -180.424 662.128 -179.937 662.308C-179.45 662.488 -178.932 662.569 -178.414 662.547L-72.4099 656.521C-71.8649 656.49 -71.3194 656.57 -70.8055 656.754C-70.2917 656.938 -69.8199 657.223 -69.4182 657.592C-69.0164 657.962 -68.6927 658.408 -68.4662 658.905C-68.2397 659.401 -68.115 659.938 -68.0994 660.484C-68.0972 661.523 -68.491 662.524 -69.2007 663.283C-69.9104 664.042 -70.8827 664.502 -71.9196 664.57L-178.945 671.25C-179.447 671.305 -179.911 671.545 -180.246 671.922C-180.582 672.299 -180.766 672.788 -180.763 673.293V674.375C-180.727 674.892 -180.496 675.376 -180.117 675.728C-179.737 676.081 -179.238 676.277 -178.72 676.275L-69.652 673.64C-68.5893 673.64 -67.5682 674.053 -66.8054 674.793C-66.0426 675.533 -65.5982 676.541 -65.5663 677.603V678.237C-65.5658 679.299 -65.9794 680.32 -66.7193 681.083C-67.4592 681.846 -68.4672 682.29 -69.5294 682.322L-178.414 684.937C-178.93 684.973 -179.414 685.205 -179.767 685.584C-180.119 685.963 -180.315 686.462 -180.314 686.98V688.063C-180.28 688.556 -180.069 689.02 -179.72 689.369C-179.371 689.718 -178.907 689.929 -178.414 689.963L-71.1841 691.454C-70.1215 691.453 -69.1004 691.867 -68.3376 692.607C-67.5748 693.347 -67.1303 694.355 -67.0984 695.417C-67.0984 696.501 -67.5289 697.54 -68.2951 698.306C-69.0613 699.072 -70.1005 699.503 -71.1841 699.503L-177.413 698.645C-177.935 698.639 -178.452 698.739 -178.935 698.938C-179.417 699.137 -179.855 699.431 -180.221 699.803C-180.587 700.175 -180.874 700.617 -181.066 701.102C-181.257 701.588 -181.349 702.107 -181.335 702.629V704.14L-64.8921 717.542C-56.8531 718.467 -48.709 717.527 -41.0919 714.796C-33.4748 712.064 -26.5896 707.614 -20.9707 701.791L-8.93825 689.329C-7.79416 688.148 -6.4173 687.216 -4.89473 686.594C-3.37216 685.971 -1.73695 685.672 -0.0926208 685.713L304.007 694.58C312.028 694.797 319.938 692.667 326.765 688.451C330.216 686.325 333.05 683.331 334.982 679.768C336.914 676.205 337.877 672.197 337.776 668.145C337.683 664.09 336.526 660.131 334.422 656.664C332.317 653.197 329.339 650.343 325.784 648.39C318.758 644.526 310.757 642.793 302.761 643.405L-0.501221 666.899C-2.14204 667.024 -3.79109 666.806 -5.34254 666.257C-6.89398 665.708 -8.31357 664.841 -9.51024 663.712L-22.1555 651.842C-28.0473 646.292 -35.139 642.173 -42.8801 639.806C-50.6212 637.44 -58.8035 636.889 -66.792 638.196Z" fill="white"/>
<path d="M210.342 617.42H171.405C165.668 617.41 160.029 618.918 155.063 621.792L121.6 641.138C120.832 641.576 120.173 642.184 119.673 642.915C119.173 643.645 118.846 644.48 118.716 645.355C118.587 646.231 118.657 647.125 118.923 647.969C119.189 648.813 119.644 649.586 120.252 650.229L123.664 653.845C127.983 658.429 133.586 661.602 139.74 662.947C145.893 664.293 152.309 663.747 158.147 661.383L177.759 653.416H221.21L210.342 617.42Z" fill="#5A0A00"/>
<path d="M196.655 617.42H190.527L181.252 653.416H195.123L196.655 617.665" fill="black"/>
<path d="M123.643 641.73C125.144 642.195 126.724 642.345 128.285 642.169C129.846 641.993 131.354 641.496 132.714 640.709L145.42 633.354C146.29 632.855 146.992 632.109 147.439 631.211C147.887 630.314 148.058 629.304 147.933 628.309C147.909 628.066 147.824 627.833 147.686 627.631C147.548 627.43 147.361 627.267 147.143 627.157C146.925 627.047 146.683 626.993 146.439 627.002C146.195 627.01 145.957 627.08 145.747 627.205L123.46 640.096C123.309 640.184 123.187 640.313 123.109 640.469C123.031 640.625 123 640.8 123.019 640.973C123.038 641.146 123.108 641.31 123.219 641.444C123.33 641.579 123.477 641.678 123.643 641.73Z" fill="#993F21"/>
<path d="M239.841 753.231L238.595 748.001C235.263 733.768 235.089 718.979 238.084 704.671C243.07 680.894 243.762 656.416 240.127 632.394L238.881 624.223C238.043 618.711 235.262 613.68 231.04 610.039C226.818 606.397 221.433 604.385 215.858 604.366H213.815C209.572 604.386 205.457 605.825 202.125 608.453C198.794 611.081 196.437 614.748 195.429 618.87L191.711 634.069C188.461 647.433 186.464 661.07 185.746 674.805L185.133 686.674C183.912 710.185 179.188 733.382 171.119 755.498L157.759 792.148C151.244 809.998 148.931 829.11 150.997 848H241.721C242.722 831.657 243.641 816.274 244.336 803.424C245.226 786.565 243.713 769.664 239.841 753.231Z" fill="#C14F29"/>
<path d="M222.416 644.182C218.891 645.56 215.086 646.062 211.325 645.646C207.564 645.229 203.96 643.907 200.823 641.792C199.949 641.195 199.254 640.372 198.812 639.412C198.369 638.451 198.196 637.389 198.31 636.337L199.985 621.301C201.514 618.806 203.722 616.798 206.351 615.51C208.979 614.223 211.919 613.71 214.828 614.031C217.737 614.352 220.495 615.495 222.779 617.325C225.063 619.155 226.779 621.597 227.727 624.366L226.072 639.422C225.955 640.473 225.552 641.472 224.907 642.311C224.263 643.15 223.401 643.797 222.416 644.182Z" fill="#FA9269"/>
<path d="M-30.9807 447.003L-32.2472 444.225C-32.6382 443.365 -33.2146 442.603 -33.9351 441.993C-34.6556 441.382 -35.5023 440.939 -36.4144 440.695C-37.3264 440.451 -38.2813 440.412 -39.2103 440.581C-40.1393 440.749 -41.0194 441.122 -41.7874 441.671L-44.2797 443.428L-47.3031 443.142C-48.2434 443.05 -49.1924 443.167 -50.0819 443.486C-50.9714 443.804 -51.7792 444.316 -52.4473 444.984C-53.1154 445.652 -53.6271 446.46 -53.9457 447.35C-54.2642 448.239 -54.3817 449.188 -54.2897 450.128L-54.0037 453.152L-55.8423 455.563C-56.3916 456.331 -56.7639 457.211 -56.9327 458.14C-57.1014 459.069 -57.0623 460.024 -56.8182 460.936C-56.574 461.848 -56.1309 462.694 -55.5207 463.415C-54.9104 464.135 -54.1482 464.712 -53.2887 465.103L-50.5104 466.369L-49.2643 469.148C-48.871 470.008 -48.2926 470.77 -47.5702 471.38C-46.8478 471.991 -45.9994 472.434 -45.0858 472.678C-44.1722 472.922 -43.2159 472.961 -42.2855 472.792C-41.355 472.623 -40.4734 472.251 -39.7037 471.701L-37.2318 469.924L-34.2084 470.23C-33.2673 470.322 -32.3176 470.204 -31.4273 469.886C-30.537 469.567 -29.7281 469.056 -29.0585 468.388C-28.3889 467.721 -27.8752 466.913 -27.5541 466.024C-27.2331 465.135 -27.1126 464.185 -27.2014 463.244L-27.5078 460.2L-25.7305 457.728C-25.1811 456.958 -24.8087 456.077 -24.6399 455.146C-24.471 454.216 -24.51 453.259 -24.7541 452.346C-24.9981 451.432 -25.4411 450.584 -26.0514 449.861C-26.6616 449.139 -27.4241 448.561 -28.2841 448.167L-30.9807 447.003ZM65.667 780.973L63.8897 780.156C63.3351 779.885 62.7263 779.743 62.1091 779.741C61.4918 779.739 60.8821 779.877 60.3257 780.144C59.7694 780.411 59.2808 780.801 58.8968 781.285C58.5127 781.768 58.2432 782.332 58.1084 782.934L57.6385 784.855L56.0247 785.999C55.514 786.345 55.0882 786.802 54.7793 787.336C54.4705 787.87 54.2865 788.467 54.2413 789.082C54.1961 789.697 54.2908 790.315 54.5183 790.888C54.7458 791.461 55.1001 791.976 55.5548 792.393L56.9644 793.761L57.1482 795.804C57.1904 796.422 57.3723 797.021 57.6802 797.558C57.988 798.095 58.4137 798.555 58.9252 798.903C59.4367 799.251 60.0207 799.479 60.633 799.568C61.2452 799.658 61.8699 799.607 62.4597 799.42L64.3595 798.869L66.1573 799.686C66.7109 799.953 67.3177 800.092 67.9325 800.092C68.5472 800.092 69.1542 799.953 69.7079 799.686C70.2616 799.419 70.7479 799.031 71.1306 798.55C71.5133 798.068 71.7825 797.507 71.9181 796.908L72.388 794.987L74.0018 793.843C74.5126 793.497 74.9383 793.04 75.2472 792.506C75.5561 791.972 75.74 791.375 75.7852 790.76C75.8304 790.145 75.7357 789.527 75.5082 788.954C75.2807 788.38 74.9264 787.866 74.4717 787.449L73.0621 786.08L72.8783 784.037C72.8361 783.42 72.6542 782.82 72.3464 782.284C72.0385 781.747 71.6128 781.287 71.1013 780.939C70.5897 780.59 70.0058 780.363 69.3936 780.273C68.7813 780.184 68.1567 780.234 67.5668 780.421L65.667 780.973Z" fill="white"/>
<path d="M91.8973 370.701L81.3153 363.347C81.0231 363.141 80.6699 363.039 80.3129 363.058C79.9558 363.077 79.6155 363.216 79.3467 363.452C79.0779 363.687 78.8962 364.007 78.8308 364.358C78.7655 364.71 78.8203 365.073 78.9865 365.39L85.0129 376.809C89.6124 385.552 92.4642 395.107 93.409 404.94C94.6155 417.449 100.381 429.077 109.606 437.609C118.832 446.142 130.874 450.983 143.439 451.211L157.146 451.456L158.576 437.851C159.895 425.352 156.571 412.805 149.236 402.6C141.901 392.394 131.069 385.243 118.802 382.509C109.148 380.371 100.007 376.359 91.8973 370.701Z" fill="#156A41"/>
<path d="M97.3722 364.43L87.1579 356.544C86.8766 356.323 86.5292 356.204 86.1716 356.204C85.814 356.205 85.467 356.325 85.1863 356.547C84.9057 356.769 84.7079 357.078 84.6245 357.426C84.5412 357.774 84.5772 358.14 84.7269 358.464L90.1404 370.17C94.3073 379.156 96.6672 388.874 97.0861 398.77C97.6473 411.324 102.806 423.233 111.58 432.229C120.353 441.225 132.129 446.679 144.664 447.554L158.331 448.515L160.374 434.991C162.364 422.589 159.713 409.889 152.93 399.318C146.146 388.747 135.705 381.046 123.602 377.688C114.08 375.016 105.171 370.512 97.3722 364.43Z" fill="#05A357"/>
<path d="M161.681 448.249L119.844 399.874L157.575 451.579C157.788 451.869 158.058 452.113 158.367 452.296C158.677 452.479 159.02 452.599 159.377 452.646C159.733 452.694 160.096 452.669 160.443 452.574C160.79 452.478 161.114 452.313 161.395 452.09C161.669 451.858 161.895 451.575 162.058 451.255C162.221 450.936 162.318 450.587 162.345 450.229C162.372 449.872 162.327 449.512 162.213 449.172C162.099 448.832 161.918 448.518 161.681 448.249Z" fill="#0F462D"/>
<path d="M54.8194 602.65L46.1169 600.301C44.153 599.785 42.3616 598.756 40.9258 597.32C39.49 595.884 38.4615 594.093 37.9454 592.129L35.5962 583.426C35.5315 583.175 35.5347 582.91 35.6054 582.66C35.6761 582.41 35.8117 582.184 35.9985 582.003C36.1853 581.822 36.4166 581.695 36.6689 581.632C36.9212 581.57 37.1854 581.576 37.4347 581.649L46.3007 584.264C48.1156 584.811 49.7669 585.798 51.1072 587.139C52.4475 588.479 53.4351 590.13 53.9819 591.945L56.6171 600.709C56.7171 600.966 56.7428 601.246 56.6912 601.517C56.6396 601.788 56.5128 602.039 56.3253 602.242C56.1378 602.444 55.8973 602.59 55.631 602.662C55.3647 602.734 55.0835 602.73 54.8194 602.65Z" fill="#06C167"/>
<path d="M-404.906 139.631H-389.707V154.83H-404.906V139.631ZM159.107 259.262H168.076V275.278H159.107V259.262ZM196.512 171.582H213.243V181.51H196.512V171.582Z" fill="#FABDA5"/>
<path d="M70.2798 528.158L87.6727 510.765L94.8942 517.989L77.5033 535.38L70.2798 528.158Z" fill="#0F462D"/>
<path d="M70.3247 294.931C73.0664 294.931 75.2889 292.708 75.2889 289.967C75.2889 287.225 73.0664 285.002 70.3247 285.002C67.5831 285.002 65.3605 287.225 65.3605 289.967C65.3605 292.708 67.5831 294.931 70.3247 294.931Z" fill="#FFE3AC"/>
<path d="M323.312 103.513C326.359 103.513 328.828 101.043 328.828 97.997C328.828 94.9507 326.359 92.4812 323.312 92.4812C320.266 92.4812 317.797 94.9507 317.797 97.997C317.797 101.043 320.266 103.513 323.312 103.513Z" fill="#FFE3AC"/>
<path d="M414.812 40.0609C417.125 40.0609 419 38.1859 419 35.873C419 33.5601 417.125 31.6851 414.812 31.6851C412.499 31.6851 410.624 33.5601 410.624 35.873C410.624 38.1859 412.499 40.0609 414.812 40.0609Z" fill="#FFE3AC"/>
</g>
<defs>
<clipPath id="clip0">
<rect width="959" height="848" fill="white" transform="translate(-540)"/>
</clipPath>
</defs>
</svg>
