<svg width="146" height="24" viewBox="0 0 146 24" fill="none" xmlns="http://www.w3.org/2000/svg">
<g clip-path="url(#clip0)">
<path d="M109.264 14.8034C109.264 11.889 106.933 9.59904 103.99 9.59904C101.09 9.59904 98.7166 11.889 98.7166 14.8034C98.7166 17.7179 101.09 20.0078 103.99 20.0078C106.933 20.0078 109.264 17.7179 109.264 14.8034ZM113.566 6.28212V23.3386H109.181V21.7981C107.654 23.061 105.725 23.7688 103.629 23.7688C98.439 23.7688 94.3865 19.7857 94.3865 14.8034C94.3865 9.83497 98.4529 5.83801 103.629 5.83801C105.725 5.83801 107.654 6.54581 109.181 7.80874V6.28212H113.566ZM128.139 19.4665H124.836C123.836 19.4665 123.184 19.0363 123.184 18.1203V10.1403H128.125V6.28212H123.184V1.42471H118.757V6.28212H115.426V10.1542H118.757V19.2167C118.757 21.5066 120.408 23.3247 123.378 23.3247H128.125V19.4665H128.139ZM138.131 23.7688C143.197 23.7688 146.056 21.3956 146.056 18.1203C146.056 15.7888 144.362 14.054 140.823 13.3046L137.076 12.5551C134.911 12.1665 134.217 11.7641 134.217 10.973C134.217 9.946 135.258 9.32148 137.187 9.32148C139.283 9.32148 140.81 9.87661 141.254 11.7641H145.639C145.403 8.21121 142.78 5.83801 137.479 5.83801C132.899 5.83801 129.679 7.69771 129.679 11.2922C129.679 13.7764 131.456 15.4002 135.272 16.1912L139.449 17.135C141.101 17.4542 141.545 17.8844 141.545 18.5506C141.545 19.6192 140.296 20.2854 138.284 20.2854C135.758 20.2854 134.301 19.7302 133.745 17.8428H129.318C129.971 21.3956 132.663 23.7688 138.131 23.7688ZM76.6917 0.231171H93.2207V4.17262H81.1605V9.8211H92.9015V13.6515H81.1605V19.3694H93.2207V23.3108H76.6917V0.231171Z" fill="#06C167"/>
<path d="M68.8365 9.46026V6.36539H67.6568C65.7833 6.36539 64.3954 7.22585 63.5627 8.57205V6.4903H60.2042V23.297H63.5905V13.7487C63.5905 11.1395 65.2004 9.46026 67.4209 9.46026H68.8365ZM44.4662 13.3462C45.0768 10.7787 47.1863 9.05779 49.6983 9.05779C52.2103 9.05779 54.3336 10.7648 54.9027 13.3462H44.4662ZM49.7677 6.17109C44.7715 6.17109 40.9688 10.1542 40.9688 14.9006C40.9688 19.9106 44.9241 23.6717 50.073 23.6717C53.1956 23.6717 55.7492 22.3255 57.4563 20.0772L54.9998 18.3008C53.723 19.98 52.0437 20.7711 50.0591 20.7711C47.1724 20.7711 44.8547 18.731 44.3829 15.997H58.3167V14.9144C58.3306 9.89049 54.7084 6.17109 49.7677 6.17109ZM30.3935 20.7711C27.1044 20.7711 24.4814 18.162 24.4814 14.9422C24.4814 11.6808 27.1321 9.1133 30.3935 9.1133C33.6133 9.1133 36.2641 11.6808 36.2641 14.9422C36.2779 18.162 33.6272 20.7711 30.3935 20.7711ZM21.1644 23.3108H24.523V21.2013C26.0635 22.7557 28.2563 23.6994 30.6295 23.6994C35.6673 23.6994 39.6226 19.7719 39.6226 14.9283C39.6226 10.057 35.6673 6.12946 30.6295 6.12946C28.2424 6.12946 26.0912 7.08706 24.5508 8.62756V0.231171H21.1644V23.3108ZM9.24296 20.6046C12.5044 20.6046 15.0163 18.1342 15.0163 14.4703V0.231171H18.5414V23.297H15.0441V21.1597C13.462 22.7696 11.2831 23.6994 8.82661 23.6994C3.78878 23.6994 -0.069397 20.1049 -0.069397 14.6646V0.231171H3.46958V14.4703C3.46958 18.2036 5.9538 20.6046 9.24296 20.6046Z" fill="#142328"/>
</g>
<defs>
<clipPath id="clip0">
<rect width="146" height="24" fill="white"/>
</clipPath>
</defs>
</svg>
