<svg width="428" height="855" viewBox="0 0 428 855" fill="none" xmlns="http://www.w3.org/2000/svg">
<g clip-path="url(#clip0)">
<path d="M968 0H554.474L237.105 226.901L685.857 854.588H968V0Z" fill="#FFE3AC"/>
<path d="M816.491 63.754L890.722 10.6875L965.848 115.775L891.615 168.842L816.491 63.754ZM765.359 371.28L839.595 318.211L914.719 423.299L840.485 476.366L765.359 371.28ZM637.173 191.963L711.406 138.896L786.53 243.984L712.297 297.051L637.173 191.963ZM847.294 854.588H952.129L916.655 804.994L847.294 854.588ZM339.076 154.028L413.31 100.961L479.012 192.868L404.778 245.936L339.076 154.028ZM586.038 499.462L660.271 446.395L735.395 551.481L661.162 604.548L586.038 499.462ZM714.237 678.793L788.47 625.727L863.594 730.813L789.361 783.881L714.237 678.793ZM457.845 320.155L532.078 267.089L607.202 372.174L532.969 425.241L457.845 320.155ZM559.161 677.439L661.145 604.533L714.214 678.766L612.228 751.672L559.161 677.439Z" fill="#E8503D"/>
<path d="M479.026 192.841L584.112 117.717L637.179 191.95L532.093 267.074L479.026 192.841ZM302.807 318.832L404.791 245.924L457.859 320.157L355.873 393.063L302.807 318.832Z" fill="#E8503D"/>
<path d="M584.094 117.742L658.327 64.6733L711.394 138.907L637.16 191.975L584.094 117.742ZM404.786 245.932L479.02 192.866L532.087 267.099L457.853 320.165L404.786 245.932Z" fill="#AB1300"/>
<path d="M196.251 855H406.291C432.213 833.414 450.853 804.365 459.675 771.807C468.497 739.249 467.072 704.764 455.594 673.044C444.117 641.325 423.144 613.913 395.53 594.539C367.916 575.165 335.003 564.771 301.271 564.771C267.539 564.771 234.626 575.165 207.012 594.539C179.398 613.913 158.425 641.325 146.948 673.044C135.47 704.764 134.045 739.249 142.867 771.807C151.689 804.365 170.329 833.414 196.251 855Z" fill="#156A41"/>
<path d="M342.413 851.867C433.052 851.867 506.529 778.39 506.529 687.751C506.529 597.113 433.052 523.636 342.413 523.636C251.775 523.636 178.297 597.113 178.297 687.751C178.297 778.39 251.775 851.867 342.413 851.867Z" fill="#C14F29"/>
<path d="M342.413 837.706C425.231 837.706 492.369 770.569 492.369 687.751C492.369 604.934 425.231 537.797 342.413 537.797C259.595 537.797 192.458 604.934 192.458 687.751C192.458 770.569 259.595 837.706 342.413 837.706Z" fill="#5A0A00"/>
<path d="M342.413 777.704C392.093 777.704 432.366 737.431 432.366 687.751C432.366 638.072 392.093 597.799 342.413 597.799C292.734 597.799 252.461 638.072 252.461 687.751C252.461 737.431 292.734 777.704 342.413 777.704Z" fill="black"/>
<path d="M316.854 750.001L314.999 748.125C307.973 741.102 298.506 737.063 288.574 736.85C286.702 736.811 284.842 737.15 283.106 737.848C281.369 738.545 279.791 739.586 278.466 740.909C277.142 742.232 276.098 743.808 275.398 745.544C274.698 747.28 274.356 749.139 274.392 751.011C274.584 760.982 278.633 770.49 285.688 777.539L287.543 779.394C294.588 786.455 304.099 790.504 314.071 790.69C315.942 790.726 317.801 790.385 319.536 789.686C321.272 788.987 322.849 787.946 324.173 786.624C325.496 785.302 326.54 783.727 327.241 781.992C327.942 780.258 328.286 778.399 328.253 776.529C328.025 766.545 323.94 757.038 316.854 750.001ZM364.84 773.952L366.715 775.807C373.769 782.855 383.274 786.903 393.244 787.103C395.115 787.139 396.974 786.797 398.71 786.097C400.446 785.397 402.023 784.354 403.345 783.029C404.668 781.705 405.709 780.127 406.407 778.39C407.104 776.653 407.443 774.793 407.404 772.922C407.22 762.953 403.179 753.444 396.129 746.394L394.254 744.538C387.205 737.483 377.696 733.435 367.725 733.243C365.855 733.209 363.997 733.553 362.262 734.254C360.527 734.955 358.952 735.999 357.63 737.323C356.308 738.647 355.267 740.224 354.568 741.959C353.87 743.695 353.528 745.554 353.565 747.424C353.755 757.391 357.796 766.898 364.84 773.952ZM251.162 689.297L249.287 691.153C242.237 698.203 238.195 707.712 238.012 717.681C237.975 719.551 238.316 721.41 239.015 723.145C239.714 724.881 240.755 726.458 242.077 727.782C243.399 729.106 244.974 730.149 246.709 730.85C248.443 731.551 250.302 731.896 252.172 731.862C262.141 731.662 271.647 727.614 278.7 720.566L280.576 718.711C287.624 711.659 291.665 702.151 291.851 692.183C291.89 690.312 291.551 688.452 290.854 686.715C290.156 684.978 289.115 683.4 287.792 682.075C286.47 680.751 284.893 679.707 283.157 679.007C281.421 678.307 279.562 677.965 277.69 678.002C267.719 678.193 258.211 682.242 251.162 689.297Z" fill="black"/>
<path d="M334.89 604.045L333.014 602.19C325.966 595.134 316.457 591.086 306.486 590.894C304.615 590.86 302.757 591.204 301.023 591.905C299.288 592.606 297.713 593.65 296.391 594.974C295.069 596.298 294.027 597.875 293.329 599.61C292.63 601.346 292.289 603.205 292.325 605.075C292.51 615.048 296.56 624.559 303.621 631.603L305.476 633.459C312.529 640.507 322.035 644.554 332.004 644.754C333.875 644.791 335.735 644.449 337.471 643.749C339.207 643.049 340.783 642.005 342.106 640.681C343.428 639.356 344.47 637.778 345.167 636.041C345.865 634.304 346.204 632.444 346.165 630.573C345.979 620.605 341.938 611.096 334.89 604.045ZM255.594 681.423L253.739 683.299C246.683 690.348 242.635 699.856 242.443 709.827C242.41 711.698 242.754 713.556 243.455 715.291C244.156 717.025 245.199 718.601 246.523 719.923C247.847 721.245 249.424 722.286 251.16 722.985C252.895 723.683 254.754 724.024 256.624 723.988C266.593 723.802 276.101 719.761 283.153 712.713L285.008 710.837C292.074 703.799 296.143 694.301 296.365 684.33C296.402 682.458 296.06 680.599 295.36 678.863C294.66 677.127 293.616 675.551 292.292 674.228C290.967 672.905 289.389 671.864 287.652 671.167C285.915 670.469 284.055 670.13 282.184 670.169C272.197 670.332 262.663 674.367 255.594 681.423ZM431.954 648.176V645.537C431.969 635.546 428.104 625.939 421.173 618.741C419.877 617.392 418.321 616.319 416.6 615.586C414.879 614.852 413.027 614.474 411.156 614.474C409.285 614.474 407.433 614.852 405.712 615.586C403.99 616.319 402.435 617.392 401.138 618.741C394.207 625.939 390.342 635.546 390.358 645.537V648.176C390.345 658.167 394.209 667.773 401.138 674.972C402.438 676.316 403.994 677.385 405.715 678.114C407.436 678.844 409.286 679.221 411.156 679.221C413.025 679.221 414.875 678.844 416.596 678.114C418.317 677.385 419.874 676.316 421.173 674.972C428.102 667.773 431.967 658.167 431.954 648.176ZM389.059 609.713V607.075C389.083 597.081 385.217 587.471 378.279 580.279C376.983 578.93 375.427 577.856 373.706 577.123C371.984 576.39 370.132 576.012 368.261 576.012C366.39 576.012 364.538 576.39 362.817 577.123C361.096 577.856 359.54 578.93 358.244 580.279C351.315 587.477 347.45 597.084 347.463 607.075V609.713C347.45 619.704 351.315 629.311 358.244 636.509C359.54 637.858 361.096 638.932 362.817 639.665C364.538 640.398 366.39 640.776 368.261 640.776C370.132 640.776 371.984 640.398 373.706 639.665C375.427 638.932 376.983 637.858 378.279 636.509C385.217 629.317 389.083 619.706 389.059 609.713ZM294.634 718.567H291.995C282.005 718.56 272.401 722.424 265.199 729.347C263.85 730.644 262.777 732.199 262.043 733.921C261.31 735.642 260.932 737.494 260.932 739.365C260.932 741.236 261.31 743.088 262.043 744.809C262.777 746.53 263.85 748.086 265.199 749.382C272.396 756.313 282.004 760.178 291.995 760.163H294.634C304.627 760.187 314.238 756.32 321.43 749.382C322.779 748.086 323.852 746.53 324.586 744.809C325.319 743.088 325.697 741.236 325.697 739.365C325.697 737.494 325.319 735.642 324.586 733.921C323.852 732.199 322.779 730.644 321.43 729.347C314.232 722.418 304.625 718.554 294.634 718.567Z" fill="#066336"/>
<path d="M419.215 683.134H416.577C406.587 683.13 396.984 686.993 389.781 693.915C388.437 695.214 387.368 696.771 386.638 698.492C385.908 700.213 385.532 702.063 385.532 703.932C385.532 705.802 385.908 707.652 386.638 709.373C387.368 711.094 388.437 712.65 389.781 713.95C396.979 720.879 406.586 724.743 416.577 724.73H419.215C429.207 724.745 438.814 720.88 446.011 713.95C447.36 712.653 448.434 711.098 449.167 709.376C449.9 707.655 450.278 705.803 450.278 703.932C450.278 702.061 449.9 700.209 449.167 698.488C448.434 696.767 447.36 695.211 446.011 693.915C438.809 686.991 429.205 683.128 419.215 683.134Z" fill="#0F462D"/>
<path d="M352.163 785.598L354.039 783.743C361.088 776.693 365.13 767.184 365.314 757.215C365.353 755.345 365.014 753.486 364.316 751.75C363.618 750.014 362.577 748.437 361.254 747.114C359.931 745.792 358.354 744.75 356.618 744.052C354.882 743.354 353.023 743.015 351.153 743.054C341.173 743.26 331.662 747.332 324.625 754.412L322.77 756.288C315.705 763.33 311.655 772.842 311.474 782.816C311.441 784.684 311.784 786.541 312.484 788.274C313.184 790.007 314.225 791.582 315.547 792.903C316.869 794.225 318.443 795.267 320.176 795.967C321.91 796.666 323.766 797.01 325.635 796.976C335.62 796.774 345.134 792.693 352.163 785.598ZM370.467 726.503L372.322 724.627C379.386 717.585 383.437 708.072 383.618 698.099C383.657 696.228 383.318 694.369 382.62 692.634C381.922 690.898 380.88 689.321 379.558 687.998C378.235 686.675 376.658 685.634 374.922 684.936C373.186 684.238 371.327 683.899 369.457 683.938C359.488 684.122 349.979 688.164 342.929 695.213L341.053 697.089C334.011 704.143 329.977 713.651 329.799 723.617C329.759 725.487 330.099 727.346 330.796 729.082C331.494 730.818 332.536 732.395 333.859 733.718C335.181 735.041 336.758 736.082 338.494 736.78C340.23 737.478 342.089 737.817 343.959 737.778C353.921 737.588 363.421 733.547 370.467 726.503ZM334.849 648.65H332.231C322.24 648.637 312.633 652.501 305.435 659.43C304.086 660.727 303.012 662.282 302.279 664.003C301.546 665.725 301.168 667.577 301.168 669.448C301.168 671.319 301.546 673.171 302.279 674.892C303.012 676.613 304.086 678.169 305.435 679.465C312.638 686.387 322.241 690.25 332.231 690.246H334.849C344.838 690.25 354.442 686.387 361.645 679.465C362.994 678.169 364.067 676.613 364.801 674.892C365.534 673.171 365.912 671.319 365.912 669.448C365.912 667.577 365.534 665.725 364.801 664.003C364.067 662.282 362.994 660.727 361.645 659.43C354.446 652.501 344.84 648.637 334.849 648.65ZM274.784 622.884H272.084C262.097 622.872 252.493 626.728 245.288 633.644C243.938 634.942 242.864 636.5 242.131 638.223C241.397 639.946 241.019 641.799 241.019 643.672C241.019 645.545 241.397 647.398 242.131 649.121C242.864 650.844 243.938 652.402 245.288 653.7C252.493 660.616 262.097 664.472 272.084 664.459H274.722C284.709 664.472 294.313 660.616 301.518 653.7C302.863 652.399 303.932 650.84 304.662 649.118C305.393 647.395 305.769 645.543 305.769 643.672C305.769 641.801 305.393 639.949 304.662 638.226C303.932 636.504 302.863 634.945 301.518 633.644C294.329 626.743 284.75 622.888 274.784 622.884ZM381.33 766.532L383.185 768.408C390.237 775.455 399.745 779.496 409.713 779.683C411.584 779.722 413.444 779.382 415.181 778.685C416.918 777.987 418.496 776.946 419.821 775.624C421.145 774.301 422.189 772.725 422.889 770.989C423.589 769.253 423.931 767.393 423.894 765.522C423.703 755.551 419.654 746.042 412.599 738.994L410.744 737.139C403.699 730.078 394.188 726.028 384.215 725.843C382.343 725.801 380.482 726.138 378.743 726.832C377.004 727.527 375.423 728.566 374.095 729.886C372.767 731.207 371.719 732.781 371.014 734.516C370.309 736.251 369.962 738.111 369.993 739.983C370.199 749.965 374.262 759.48 381.33 766.532Z" fill="#066336"/>
<path d="M312.464 719.185C320.341 719.185 326.727 712.799 326.727 704.922C326.727 697.044 320.341 690.658 312.464 690.658C304.586 690.658 298.2 697.044 298.2 704.922C298.2 712.799 304.586 719.185 312.464 719.185Z" fill="#066336"/>
<path d="M380.464 678.558C386.486 678.558 391.368 673.677 391.368 667.654C391.368 661.632 386.486 656.75 380.464 656.75C374.442 656.75 369.56 661.632 369.56 667.654C369.56 673.677 374.442 678.558 380.464 678.558Z" fill="#066336"/>
<path d="M417.587 651.35L411.63 649.742C410.504 649.437 409.478 648.843 408.654 648.019C407.829 647.194 407.235 646.168 406.93 645.043L405.322 639.086C405.264 638.882 405.262 638.665 405.317 638.46C405.372 638.255 405.481 638.069 405.633 637.921C405.785 637.773 405.975 637.669 406.181 637.62C406.388 637.571 406.604 637.579 406.807 637.643L412.764 639.436C413.817 639.755 414.775 640.328 415.555 641.104C416.335 641.881 416.912 642.837 417.236 643.888L419.03 649.845C419.091 650.048 419.098 650.264 419.048 650.471C418.999 650.677 418.896 650.867 418.749 651.02C418.602 651.173 418.417 651.285 418.212 651.343C418.008 651.401 417.792 651.403 417.587 651.35ZM297.107 722.525L298.653 716.753C299.005 715.46 299.688 714.282 300.635 713.335C301.583 712.388 302.761 711.704 304.054 711.353L309.825 709.807C309.992 709.765 310.167 709.768 310.333 709.814C310.499 709.861 310.65 709.95 310.771 710.073C310.891 710.196 310.978 710.348 311.022 710.515C311.066 710.681 311.065 710.856 311.021 711.023L309.248 716.856C308.884 718.061 308.229 719.157 307.341 720.048C306.453 720.94 305.36 721.599 304.157 721.968L298.323 723.72C298.156 723.772 297.979 723.777 297.809 723.736C297.639 723.694 297.483 723.608 297.359 723.485C297.234 723.363 297.145 723.209 297.1 723.04C297.056 722.87 297.059 722.692 297.107 722.525ZM386.586 761.008L381.33 763.997C380.17 764.666 378.855 765.018 377.516 765.018C376.178 765.018 374.862 764.666 373.703 763.997L368.509 761.008C368.358 760.924 368.233 760.801 368.146 760.652C368.059 760.504 368.014 760.335 368.014 760.163C368.014 759.991 368.059 759.821 368.146 759.673C368.233 759.524 368.358 759.402 368.509 759.318L373.889 756.432C374.996 755.833 376.236 755.519 377.496 755.519C378.755 755.519 379.995 755.833 381.103 756.432L386.462 759.318C386.619 759.39 386.754 759.503 386.852 759.646C386.951 759.788 387.009 759.954 387.022 760.126C387.034 760.299 387.001 760.471 386.924 760.626C386.847 760.781 386.731 760.913 386.586 761.008ZM324.728 659.636H334.787V663.841H324.728V659.636ZM262.087 643.682H267.776V653.061H262.087V643.682ZM256.066 717.963L259.883 714.146L263.703 717.963L259.883 721.783L256.066 717.963ZM343.98 606.848H349.978V610.538H343.98V606.848Z" fill="#06C167"/>
<path d="M338.396 754.362L341.675 751.085L349.314 758.722L346.035 761.999L338.396 754.362Z" fill="#BC8B2C"/>
<path d="M420.066 702.104L413.114 709.056L409.849 705.791L416.801 698.839L420.066 702.104Z" fill="#06C167"/>
<path d="M309.083 597.82H312.567V601.303H309.083V597.82Z" fill="#BC8B2C"/>
<path d="M301.539 653.7C302.883 652.399 303.953 650.84 304.683 649.118C305.413 647.395 305.789 645.543 305.789 643.672C305.789 641.801 305.413 639.949 304.683 638.226C303.953 636.504 302.883 634.945 301.539 633.644C297.161 629.45 291.858 626.343 286.059 624.575C280.849 631.195 277.953 639.34 277.814 647.764C277.751 651.061 278.863 654.274 280.951 656.827C283.039 659.379 285.968 661.106 289.213 661.697C293.808 659.845 298.006 657.131 301.58 653.7H301.539ZM326.459 601.757C316.491 601.941 306.982 605.982 299.931 613.032L298.055 614.907C296.961 616.005 295.936 617.168 294.984 618.391C296.92 623.344 299.861 627.843 303.621 631.603L305.476 633.459C311.405 639.387 319.104 643.222 327.408 644.383L329.263 642.507C336.327 635.465 340.377 625.953 340.558 615.979C340.619 613.179 339.829 610.426 338.291 608.085C337.693 607.302 337.054 606.539 336.395 605.797C335.092 604.495 333.541 603.467 331.835 602.773C330.129 602.079 328.301 601.734 326.459 601.757Z" fill="#0F462D"/>
<path d="M295.293 614.949L293.438 616.804C286.39 623.857 282.343 633.363 282.143 643.332C282.109 645.203 282.453 647.062 283.154 648.798C283.855 650.534 284.898 652.111 286.222 653.434C287.545 654.758 289.122 655.801 290.858 656.502C292.593 657.203 294.452 657.547 296.324 657.513C306.292 657.309 315.796 653.262 322.852 646.218L324.707 644.362C331.75 637.307 335.79 627.801 335.982 617.834C336.016 615.963 335.672 614.104 334.971 612.368C334.27 610.632 333.227 609.056 331.903 607.732C330.58 606.408 329.003 605.365 327.267 604.664C325.532 603.963 323.672 603.62 321.801 603.653C311.838 603.852 302.338 607.9 295.293 614.949Z" fill="#997328"/>
<path d="M291.769 651.391C293.533 651.391 294.964 649.961 294.964 648.196C294.964 646.432 293.533 645.002 291.769 645.002C290.004 645.002 288.574 646.432 288.574 648.196C288.574 649.961 290.004 651.391 291.769 651.391Z" fill="black"/>
<path d="M255.594 681.423L253.739 683.299C248.438 688.586 244.799 695.306 243.268 702.634C250.377 709.156 259.674 712.774 269.322 712.775H272.084C276.716 712.768 281.31 711.93 285.647 710.301C292.356 703.299 296.183 694.026 296.365 684.33C296.393 682.563 296.085 680.808 295.458 679.156C289.233 674.378 281.695 671.616 273.856 671.241C266.949 672.893 260.63 676.416 255.594 681.423Z" fill="#0F462D"/>
<path d="M281.462 661.656H278.824C268.832 661.641 259.225 665.506 252.028 672.437C250.679 673.733 249.605 675.288 248.872 677.01C248.139 678.731 247.761 680.583 247.761 682.454C247.761 684.325 248.139 686.177 248.872 687.898C249.605 689.62 250.679 691.175 252.028 692.472C259.23 699.395 268.834 703.259 278.824 703.252H281.462C291.452 703.257 301.055 699.393 308.259 692.472C309.603 691.172 310.671 689.616 311.401 687.895C312.131 686.174 312.507 684.323 312.507 682.454C312.507 680.585 312.131 678.734 311.401 677.013C310.671 675.292 309.603 673.736 308.259 672.437C301.06 665.508 291.454 661.643 281.462 661.656Z" fill="#BC8B2C"/>
<path d="M255.47 685.938C257.235 685.938 258.665 684.507 258.665 682.743C258.665 680.978 257.235 679.548 255.47 679.548C253.706 679.548 252.275 680.978 252.275 682.743C252.275 684.507 253.706 685.938 255.47 685.938Z" fill="black"/>
<path d="M411.073 743.302C411.023 741.129 410.796 738.965 410.393 736.829C403.372 729.961 393.994 726.031 384.174 725.843C382.305 725.807 380.448 726.147 378.714 726.845C376.98 727.542 375.404 728.582 374.08 729.901C372.757 731.221 371.713 732.794 371.01 734.526C370.308 736.258 369.962 738.114 369.993 739.983C370.041 742.156 370.269 744.32 370.673 746.455C377.694 753.339 387.082 757.276 396.913 757.462C398.783 757.496 400.641 757.152 402.376 756.451C404.111 755.75 405.686 754.706 407.008 753.382C408.33 752.059 409.371 750.482 410.07 748.746C410.768 747.01 411.11 745.152 411.073 743.281V743.302ZM337.508 648.753C338.017 652.084 339.719 655.116 342.298 657.285C344.876 659.454 348.155 660.612 351.524 660.543C354.809 660.481 358.072 659.996 361.232 659.1C354.758 653.013 346.374 649.356 337.508 648.753Z" fill="#0F462D"/>
<path d="M384.689 643.352L386.545 641.497C393.592 634.446 397.633 624.937 397.82 614.969C397.853 613.098 397.509 611.239 396.808 609.503C396.108 607.767 395.064 606.191 393.741 604.867C392.417 603.543 390.84 602.5 389.105 601.799C387.369 601.098 385.51 600.754 383.638 600.788C373.663 601.025 364.165 605.109 357.131 612.187L355.275 614.042C348.231 621.098 344.184 630.602 343.98 640.57C343.946 642.441 344.29 644.3 344.991 646.036C345.692 647.772 346.735 649.349 348.059 650.672C349.382 651.996 350.959 653.039 352.695 653.74C354.431 654.441 356.29 654.785 358.161 654.751C368.147 654.532 377.658 650.446 384.689 643.352Z" fill="#BC8B2C"/>
<path d="M388.214 613.3C389.979 613.3 391.409 611.869 391.409 610.105C391.409 608.34 389.979 606.91 388.214 606.91C386.45 606.91 385.019 608.34 385.019 610.105C385.019 611.869 386.45 613.3 388.214 613.3Z" fill="black"/>
<path d="M294.634 760.163C303.312 760.19 311.745 757.284 318.565 751.918C318.029 751.299 317.452 750.681 316.854 750.083L314.999 748.207C307.986 741.154 298.518 737.085 288.574 736.85C286.702 736.811 284.842 737.15 283.106 737.848C281.369 738.545 279.791 739.586 278.466 740.909C277.142 742.231 276.098 743.808 275.398 745.544C274.698 747.28 274.356 749.139 274.392 751.011C274.429 752.709 274.581 754.403 274.846 756.081C280.198 758.779 286.105 760.191 292.098 760.204L294.634 760.163ZM328.15 776.529C328.002 769.519 325.958 762.681 322.234 756.741C315.504 763.742 311.662 773.024 311.474 782.733C311.418 785.558 312.223 788.333 313.783 790.689H313.968C315.839 790.726 317.697 790.384 319.433 789.686C321.169 788.987 322.746 787.946 324.07 786.624C325.393 785.302 326.437 783.727 327.138 781.992C327.839 780.258 328.183 778.399 328.15 776.529Z" fill="#0F462D"/>
<path d="M324.81 742.044L322.955 740.189C315.902 733.141 306.396 729.094 296.427 728.894C294.556 728.86 292.696 729.204 290.961 729.905C289.225 730.606 287.648 731.649 286.325 732.973C285.001 734.296 283.958 735.873 283.257 737.609C282.556 739.344 282.212 741.203 282.246 743.075C282.45 753.043 286.497 762.547 293.541 769.603L295.417 771.458C302.459 778.51 311.96 782.559 321.925 782.754C323.796 782.787 325.655 782.443 327.391 781.743C329.127 781.042 330.703 779.998 332.027 778.675C333.351 777.351 334.394 775.774 335.095 774.039C335.796 772.303 336.139 770.444 336.106 768.572C335.912 758.602 331.864 749.094 324.81 742.044Z" fill="#BC8B2C"/>
<path d="M291.562 741.694C293.327 741.694 294.757 740.264 294.757 738.499C294.757 736.735 293.327 735.304 291.562 735.304C289.798 735.304 288.368 736.735 288.368 738.499C288.368 740.264 289.798 741.694 291.562 741.694Z" fill="black"/>
<path d="M365.85 669.345C362.449 671.073 359.323 673.296 356.574 675.941C355.21 677.248 354.128 678.819 353.395 680.56C352.661 682.3 352.291 684.173 352.307 686.061C355.713 684.331 358.845 682.109 361.603 679.465C362.965 678.158 364.045 676.586 364.775 674.845C365.505 673.104 365.871 671.232 365.85 669.345Z" fill="#0F462D"/>
<path d="M389.822 693.915C388.133 695.548 386.883 697.581 386.187 699.825C385.492 702.07 385.374 704.454 385.844 706.756H385.947C395.936 706.761 405.54 702.897 412.743 695.976C414.432 694.342 415.682 692.309 416.378 690.065C417.073 687.82 417.191 685.437 416.721 683.134H416.618C406.628 683.13 397.025 686.993 389.822 693.915Z" fill="black"/>
<path d="M382.463 706.735C383.168 703.908 383.555 701.012 383.618 698.099C383.657 696.228 383.318 694.369 382.62 692.634C381.922 690.898 380.88 689.321 379.558 687.998C378.235 686.675 376.658 685.634 374.922 684.936C373.186 684.238 371.327 683.899 369.457 683.938C363.555 684.047 357.757 685.514 352.513 688.226C353.004 691.19 354.452 693.912 356.636 695.976C363.598 702.664 372.812 706.502 382.463 706.735Z" fill="#0F462D"/>
<path d="M392.687 653.061H390.049C380.055 653.037 370.445 656.903 363.253 663.841C361.903 665.138 360.83 666.693 360.097 668.414C359.364 670.136 358.986 671.988 358.986 673.859C358.986 675.73 359.364 677.582 360.097 679.303C360.83 681.024 361.903 682.58 363.253 683.876C370.451 690.805 380.057 694.67 390.049 694.657H392.687C402.678 694.67 412.285 690.805 419.483 683.876C420.832 682.58 421.906 681.024 422.639 679.303C423.372 677.582 423.75 675.73 423.75 673.859C423.75 671.988 423.372 670.136 422.639 668.414C421.906 666.693 420.832 665.138 419.483 663.841C412.291 656.903 402.68 653.037 392.687 653.061Z" fill="#997328"/>
<path d="M416.968 677.054C418.733 677.054 420.163 675.623 420.163 673.859C420.163 672.094 418.733 670.664 416.968 670.664C415.204 670.664 413.773 672.094 413.773 673.859C413.773 675.623 415.204 677.054 416.968 677.054Z" fill="black"/>
<path d="M356.595 703.087V700.449C356.619 690.455 352.752 680.845 345.814 673.653C344.518 672.303 342.962 671.23 341.241 670.497C339.52 669.764 337.668 669.386 335.797 669.386C333.926 669.386 332.074 669.764 330.353 670.497C328.631 671.23 327.076 672.303 325.779 673.653C318.85 680.851 314.986 690.457 314.999 700.449V703.087C314.986 713.078 318.85 722.685 325.779 729.883C327.076 731.232 328.631 732.306 330.353 733.039C332.074 733.772 333.926 734.15 335.797 734.15C337.668 734.15 339.52 733.772 341.241 733.039C342.962 732.306 344.518 731.232 345.814 729.883C352.752 722.691 356.619 713.08 356.595 703.087Z" fill="#997328"/>
<path d="M335.756 730.543C337.52 730.543 338.95 729.112 338.95 727.348C338.95 725.583 337.52 724.153 335.756 724.153C333.991 724.153 332.561 725.583 332.561 727.348C332.561 729.112 333.991 730.543 335.756 730.543Z" fill="black"/>
<path d="M374.713 737.53L376.589 739.406C383.639 746.455 393.148 750.497 403.117 750.681C404.987 750.72 406.846 750.381 408.582 749.683C410.318 748.985 411.895 747.944 413.218 746.621C414.541 745.298 415.582 743.721 416.28 741.985C416.978 740.25 417.317 738.391 417.278 736.52C417.11 726.56 413.091 717.053 406.064 709.992L404.189 708.116C397.138 701.067 387.629 697.025 377.661 696.842C375.79 696.802 373.931 697.142 372.195 697.839C370.459 698.537 368.883 699.579 367.56 700.901C366.237 702.224 365.195 703.801 364.498 705.537C363.8 707.273 363.461 709.132 363.5 711.002C363.667 720.962 367.686 730.47 374.713 737.53Z" fill="#BC8B2C"/>
<path d="M407.981 744.25C409.746 744.25 411.176 742.819 411.176 741.055C411.176 739.29 409.746 737.86 407.981 737.86C406.217 737.86 404.786 739.29 404.786 741.055C404.786 742.819 406.217 744.25 407.981 744.25Z" fill="black"/>
<path d="M141.113 240.464C196.199 240.464 240.856 195.807 240.856 140.72C240.856 85.6339 196.199 40.9774 141.113 40.9774C86.0258 40.9774 41.3691 85.6339 41.3691 140.72C41.3691 195.807 86.0258 240.464 141.113 240.464Z" fill="#156A41"/>
<path d="M161.56 220.016C216.647 220.016 261.303 175.36 261.303 120.273C261.303 65.1864 216.647 20.5299 161.56 20.5299C106.473 20.5299 61.8166 65.1864 61.8166 120.273C61.8166 175.36 106.473 220.016 161.56 220.016Z" fill="#05A357"/>
<path d="M161.56 197.24C204.068 197.24 238.527 162.78 238.527 120.273C238.527 77.7656 204.068 43.3065 161.56 43.3065C119.053 43.3065 84.5934 77.7656 84.5934 120.273C84.5934 162.78 119.053 197.24 161.56 197.24Z" fill="#FFCF70"/>
<path d="M215.42 91.7662L214.369 96.4246L218.492 98.4858L233.229 92.1166C232.082 89.2087 230.761 86.3728 229.272 83.6243L215.42 91.7662Z" fill="#05A357"/>
<path d="M221.315 132.187C223.764 119.922 222.378 107.2 217.346 95.749C212.315 84.2983 203.881 74.6734 193.191 68.1812C182.5 61.689 170.071 58.644 157.59 59.4598C145.109 60.2755 133.182 64.9125 123.427 72.741C136.298 69.6465 149.808 70.5755 162.134 75.4025C174.46 80.2295 185.008 88.722 192.354 99.7337C199.701 110.745 203.492 123.746 203.215 136.98C202.939 150.215 198.609 163.046 190.809 173.741C198.627 169.471 205.411 163.536 210.682 156.356C215.953 149.175 219.583 140.925 221.315 132.187Z" fill="#0F462D"/>
<path d="M151.254 72.1432C142.05 70.2939 132.553 70.4768 123.427 72.6791C111.505 82.2009 103.589 95.8494 101.244 110.926C98.8995 126.003 102.297 141.411 110.765 154.104C119.233 166.796 132.155 175.85 146.976 179.475C161.797 183.099 177.439 181.032 190.809 173.68C197.205 164.91 201.292 154.671 202.692 143.907C204.092 133.143 202.76 122.2 198.82 112.086C194.88 101.972 188.458 93.0117 180.145 86.0315C171.833 79.0512 161.897 74.2751 151.254 72.1432Z" fill="#066336"/>
<path d="M322.337 13.9133C321.317 12.385 319.914 11.1506 318.269 10.3332C316.623 9.51586 314.792 9.14408 312.958 9.25493C309.353 9.48258 305.893 10.7577 303.002 12.9239L193.901 94.3427L180.627 91.6837C172.801 90.1173 164.713 90.461 157.049 92.6857C149.384 94.9104 142.369 98.9505 136.598 104.463L143.174 114.316C144.313 116.015 145.105 117.922 145.505 119.927C145.904 121.933 145.904 123.998 145.503 126.003C144.702 130.045 145.537 134.24 147.824 137.668C150.112 141.095 153.665 143.475 157.706 144.286L163.065 145.358C165.855 145.907 168.438 147.22 170.526 149.151C177.077 145.715 182.776 140.856 187.205 134.932C191.635 129.008 194.683 122.169 196.127 114.914L198.786 101.639L315.803 32.2171C318.932 30.365 321.448 27.634 323.038 24.3638C323.849 22.7137 324.211 20.8791 324.088 19.0446C323.965 17.2101 323.361 15.4404 322.337 13.9133Z" fill="#FFFAF0"/>
<path d="M157.706 144.286C153.661 143.476 150.104 141.092 147.816 137.66C145.528 134.228 144.696 130.028 145.503 125.983C145.904 123.977 145.904 121.912 145.505 119.907C145.105 117.901 144.313 115.994 143.174 114.295L136.598 104.443C129.194 111.489 124.153 120.655 122.17 130.682C121.15 135.818 122.21 141.148 125.116 145.503C128.022 149.858 132.537 152.882 137.67 153.912C148.883 156.187 160.538 154.504 170.65 149.151C168.562 147.22 165.979 145.907 163.188 145.358L157.706 144.286ZM131.992 81.3239L141.37 83.1976L140.69 86.6131L131.311 84.7415L131.992 81.3239ZM117.425 143.417L122.732 151.373L119.834 153.306L114.527 145.35L117.425 143.417Z" fill="#05A357"/>
<path d="M116.949 142.691L118.882 145.589L115.984 147.523L114.051 144.624L116.949 142.691Z" fill="#0F462D"/>
<path d="M115.877 100.786L120.506 101.71L119.309 107.714L114.679 106.788L115.877 100.786ZM183.504 163.922L188.134 164.847L186.934 170.85L182.306 169.926L183.504 163.922Z" fill="#BC8B2C"/>
<path d="M184.217 160.321L188.847 161.244L187.647 167.249L183.018 166.323L184.217 160.321Z" fill="#0F462D"/>
<path d="M193.715 137.618L196.234 141.349L192.503 143.864L189.989 140.133L193.715 137.618Z" fill="#BC8B2C"/>
<path d="M128.217 96.0741L131.845 93.6295L134.292 97.2573L130.664 99.704L128.217 96.0741ZM107.011 111.977L112.105 112.995L111.721 114.914L106.63 113.898L107.011 111.977ZM124.874 158.581L129.967 159.599L129.584 161.518L124.491 160.502L124.874 158.581ZM190.912 150.961L198.025 152.381L197.494 155.048L190.378 153.628L190.912 150.961Z" fill="#0F462D"/>
<path d="M116.637 86.2173L122.036 87.2953L120.958 92.6917L115.561 91.6157L116.637 86.2173Z" fill="#05A357"/>
<path d="M115.549 91.6013L120.945 92.6793L120.611 94.3571L115.213 93.2812L115.549 91.6013ZM140.243 82.9729L143.658 83.6531L142.976 87.0707L139.56 86.3884L140.243 82.9729Z" fill="#0F462D"/>
<path d="M151.452 77.0077L155.294 77.7745L154.527 81.6166L150.685 80.8498L151.452 77.0077Z" fill="#BC8B2C"/>
<path d="M122.475 131.121L129.368 126.525L130.683 128.495L123.79 133.092L122.475 131.121ZM161.148 85.1001L168.043 80.5036L169.358 82.4741L162.465 87.0707L161.148 85.1001ZM109.569 121.59L112.259 122.126L111.332 126.776L108.642 126.24L109.569 121.59ZM177.972 151.954L180.66 152.49L179.732 157.14L177.042 156.604L177.972 151.954Z" fill="#0F462D"/>
<path d="M111.938 135.526L116.87 136.511L116.417 138.777L111.486 137.791L111.938 135.526Z" fill="#BC8B2C"/>
<path d="M122.186 112.405L124.672 112.9L124.177 115.388L121.689 114.891L122.186 112.405ZM150.963 89.4597L153.449 89.9564L152.954 92.4423L150.466 91.9476L150.963 89.4597Z" fill="#05A357"/>
<path d="M174.266 86.3554L176.751 86.8501L176.257 89.338L173.769 88.8413L174.266 86.3554Z" fill="#BC8B2C"/>
<path d="M196.758 126.02L199.244 126.517L198.749 129.002L196.261 128.508L196.758 126.02Z" fill="#05A357"/>
<path d="M138.924 117.07L141.207 117.525L140.016 123.489L137.732 123.033L138.924 117.07ZM129.281 141.153L135.428 142.38L134.69 146.078L128.543 144.851L129.281 141.153Z" fill="#0F462D"/>
<path d="M134.236 142.13L137.934 142.87L137.196 146.568L133.496 145.83L134.236 142.13Z" fill="#FFC043"/>
<path d="M149.411 146.385L151.792 149.951L150.163 151.037L147.783 147.471L149.411 146.385Z" fill="#0F462D"/>
<path d="M140.865 132.64L142.547 135.161L140.028 136.843L138.346 134.322L140.865 132.64ZM134.531 111.896L134.063 114.242L131.717 113.774L132.185 111.428L134.531 111.896Z" fill="#FFC043"/>
<path d="M159.239 148.491L163.524 149.347L163.236 150.781L158.953 149.926L159.239 148.491ZM166.596 175.122L170.232 172.698L171.044 173.915L167.408 176.341L166.596 175.122Z" fill="#0F462D"/>
<path d="M139.69 156.437L142.601 157.019L140.898 165.548L137.988 164.967L139.69 156.437Z" fill="#05A357"/>
<path d="M137.971 164.95L140.882 165.532L140.3 168.442L137.39 167.861L137.971 164.95Z" fill="#BC8B2C"/>
<path d="M154.993 158.789L162.088 160.205L161.418 163.561L154.323 162.145L154.993 158.789Z" fill="#0F462D"/>
<path d="M162.075 160.226L166.019 161.013L165.349 164.369L161.408 163.582L162.075 160.226ZM155.23 168.65L157.644 172.266L154.026 174.681L151.613 171.062L155.23 168.65ZM173.792 164.287L177.572 165.041L177.236 166.719L173.456 165.964L173.792 164.287Z" fill="#05A357"/>
<path d="M233.188 92.0754L254.089 83.0265C252.561 79.2314 250.798 75.5347 248.812 71.9577L229.231 83.5831C230.72 86.3316 232.041 89.1675 233.188 92.0754Z" fill="#066336"/>
<path d="M318.895 93.6213L317.617 90.818C317.222 89.9508 316.641 89.1817 315.914 88.566C315.187 87.9502 314.332 87.5031 313.412 87.2568C312.492 87.0105 311.528 86.971 310.591 87.1413C309.654 87.3115 308.765 87.6872 307.991 88.2415L305.476 90.0141L302.425 89.7256C301.467 89.6301 300.499 89.7504 299.594 90.0776C298.688 90.4049 297.867 90.9307 297.191 91.6167C296.515 92.3026 296.001 93.1311 295.687 94.0416C295.373 94.952 295.266 95.9212 295.376 96.878L295.664 99.9493L293.871 102.443C293.318 103.22 292.943 104.109 292.774 105.047C292.605 105.986 292.646 106.95 292.895 107.87C293.143 108.791 293.592 109.645 294.21 110.371C294.828 111.097 295.599 111.677 296.468 112.069L299.251 113.347L300.529 116.151C300.926 117.018 301.509 117.788 302.238 118.403C302.967 119.019 303.823 119.466 304.745 119.712C305.667 119.959 306.632 119.998 307.571 119.828C308.509 119.657 309.399 119.281 310.175 118.727L312.67 116.954L315.72 117.243C316.669 117.336 317.627 117.217 318.524 116.896C319.422 116.574 320.237 116.058 320.911 115.384C321.585 114.71 322.101 113.895 322.423 112.997C322.744 112.1 322.863 111.142 322.77 110.194L322.481 107.143L324.274 104.628C324.86 103.848 325.261 102.945 325.449 101.988C325.637 101.031 325.605 100.043 325.357 99.0998C325.11 98.1563 324.652 97.2809 324.018 96.5392C323.384 95.7976 322.591 95.2088 321.698 94.8168L318.895 93.6213ZM352.987 477.938L351.174 477.093C350.613 476.82 349.997 476.677 349.373 476.677C348.749 476.676 348.133 476.817 347.571 477.089C347.009 477.36 346.517 477.756 346.13 478.246C345.744 478.736 345.474 479.308 345.34 479.917L344.866 481.855L343.238 482.988C342.722 483.338 342.293 483.799 341.981 484.338C341.67 484.876 341.484 485.479 341.438 486.099C341.393 486.72 341.488 487.343 341.718 487.922C341.947 488.5 342.305 489.019 342.764 489.44L344.207 490.821L344.392 492.882C344.436 493.503 344.619 494.106 344.928 494.645C345.238 495.185 345.665 495.648 346.179 495.999C346.692 496.349 347.278 496.58 347.894 496.672C348.509 496.764 349.137 496.716 349.731 496.531L351.648 495.974L353.462 496.819C354.023 497.093 354.638 497.235 355.262 497.236C355.886 497.237 356.502 497.096 357.064 496.824C357.626 496.552 358.118 496.156 358.505 495.666C358.891 495.176 359.161 494.605 359.295 493.995L359.769 492.058L361.397 490.904C361.913 490.555 362.342 490.093 362.654 489.555C362.966 489.016 363.151 488.413 363.197 487.793C363.242 487.172 363.147 486.549 362.917 485.97C362.688 485.392 362.33 484.873 361.871 484.452L360.429 483.092L360.243 481.03C360.197 480.412 360.011 479.811 359.701 479.274C359.39 478.737 358.962 478.277 358.449 477.928C357.936 477.58 357.351 477.351 356.737 477.26C356.123 477.169 355.497 477.218 354.904 477.403L352.987 477.938Z" fill="white"/>
<path d="M313.597 414.72L321.409 404.641C321.62 404.361 321.732 404.02 321.728 403.67C321.724 403.32 321.605 402.981 321.388 402.706C321.172 402.431 320.871 402.235 320.532 402.149C320.193 402.062 319.834 402.091 319.513 402.229L307.929 407.588C299.052 411.695 289.461 414.033 279.69 414.473C267.267 415.02 255.479 420.118 246.572 428.796C237.666 437.474 232.264 449.126 231.395 461.531L230.467 475.053L243.845 477.114C256.127 479.05 268.691 476.402 279.148 469.675C289.604 462.947 297.221 452.61 300.55 440.63C303.176 431.229 307.608 422.428 313.597 414.72Z" fill="#0F462D"/>
<path d="M230.653 478.206L278.536 436.734L227.376 474.084C227.087 474.295 226.845 474.562 226.662 474.869C226.479 475.176 226.36 475.517 226.312 475.871C226.264 476.225 226.288 476.585 226.382 476.929C226.476 477.274 226.639 477.596 226.86 477.877C227.083 478.153 227.36 478.382 227.674 478.55C227.988 478.717 228.332 478.819 228.686 478.85C229.041 478.881 229.397 478.84 229.735 478.729C230.073 478.618 230.385 478.441 230.653 478.206Z" fill="#0F462D"/>
<path d="M14.037 777.951L11.9758 780.012C4.49535 787.54 0.205814 797.662 -6.66152e-06 808.272C-0.0392419 810.269 0.325286 812.254 1.07172 814.108C1.81816 815.961 2.93114 817.645 4.34394 819.057C5.75674 820.47 7.44026 821.583 9.29359 822.33C11.1469 823.076 13.1319 823.441 15.1295 823.401C25.7771 823.2 35.9337 818.886 43.4716 811.364L45.5328 809.302C53.0582 801.773 57.3791 791.624 57.5911 780.981C57.6303 778.984 57.2658 776.999 56.5193 775.145C55.7729 773.292 54.6599 771.608 53.2471 770.196C51.8343 768.783 50.1508 767.67 48.2975 766.923C46.4441 766.177 44.4592 765.812 42.4616 765.852C31.7766 766.048 21.5854 770.386 14.037 777.951Z" fill="#156A41"/>
<path d="M21.9728 770.036L19.9116 772.097C12.3813 779.632 8.06 789.789 7.85333 800.439C7.81409 802.437 8.17862 804.422 8.92506 806.275C9.6715 808.128 10.7845 809.812 12.1973 811.225C13.6101 812.637 15.2936 813.75 17.1469 814.497C19.0003 815.243 20.9852 815.608 22.9828 815.569C33.6261 815.357 43.7748 811.036 51.3043 803.51L53.3655 801.449C60.8909 793.92 65.2118 783.771 65.4238 773.128C65.4573 771.13 65.0882 769.146 64.3385 767.294C63.5887 765.442 62.4737 763.76 61.0598 762.348C59.646 760.936 57.9623 759.823 56.1092 759.076C54.2561 758.328 52.2714 757.962 50.2737 757.998C39.6405 758.21 29.5005 762.523 21.9728 770.036Z" fill="#997328"/>
<path d="M18.2008 808.952C20.0905 808.952 21.6224 807.42 21.6224 805.53C21.6224 803.641 20.0905 802.109 18.2008 802.109C16.311 802.109 14.7791 803.641 14.7791 805.53C14.7791 807.42 16.311 808.952 18.2008 808.952Z" fill="black"/>
<path d="M371.869 46.1304L369.807 48.1916C362.282 55.7211 357.961 65.8698 357.749 76.513C357.713 78.5125 358.08 80.4989 358.828 82.3534C359.577 84.2079 360.691 85.8925 362.105 87.3067C363.52 88.7208 365.204 89.8354 367.059 90.5839C368.913 91.3324 370.9 91.6994 372.899 91.6631C383.542 91.4511 393.691 87.1302 401.221 79.6049L403.282 77.5436C410.807 70.0141 415.128 59.8655 415.34 49.2223C415.379 47.2246 415.015 45.2397 414.268 43.3864C413.522 41.533 412.409 39.8495 410.996 38.4367C409.583 37.0239 407.9 35.911 406.046 35.1645C404.193 34.4181 402.208 34.0536 400.211 34.0928C389.563 34.294 379.406 38.6077 371.869 46.1304Z" fill="#156A41"/>
<path d="M379.784 38.1947L377.722 40.2559C370.192 47.7905 365.871 57.9475 365.664 68.5979C365.628 70.5947 365.994 72.5784 366.742 74.4304C367.489 76.2824 368.602 77.9648 370.015 79.377C371.427 80.7892 373.109 81.9023 374.961 82.6497C376.813 83.3972 378.797 83.7637 380.794 83.7273C391.444 83.5207 401.601 79.1993 409.136 71.6691L411.197 69.6079C418.737 62.0631 423.059 51.8895 423.255 41.2247C423.286 39.2313 422.915 37.2521 422.165 35.4049C421.415 33.5577 420.301 31.8803 418.89 30.4725C417.478 29.0647 415.798 27.9554 413.948 27.2104C412.099 26.4655 410.119 26.1003 408.126 26.1365C397.475 26.3431 387.318 30.6645 379.784 38.1947Z" fill="#997328"/>
<path d="M376.032 77.1108C377.922 77.1108 379.454 75.5788 379.454 73.6891C379.454 71.7994 377.922 70.2675 376.032 70.2675C374.142 70.2675 372.611 71.7994 372.611 73.6891C372.611 75.5788 374.142 77.1108 376.032 77.1108Z" fill="black"/>
<path d="M223.129 312.071L214.369 309.7C212.389 309.178 210.582 308.139 209.134 306.691C207.685 305.243 206.647 303.436 206.124 301.456L203.816 292.695C203.743 292.441 203.741 292.171 203.81 291.915C203.879 291.66 204.016 291.427 204.206 291.243C204.397 291.059 204.633 290.93 204.891 290.87C205.149 290.81 205.419 290.821 205.671 290.902L214.513 293.561C216.341 294.119 218.004 295.118 219.355 296.469C220.707 297.821 221.705 299.483 222.264 301.311L224.923 310.154C225.019 310.41 225.042 310.687 224.989 310.955C224.936 311.223 224.809 311.47 224.622 311.67C224.435 311.869 224.197 312.013 223.933 312.083C223.669 312.154 223.391 312.15 223.129 312.071ZM106.442 695.79L110.977 703.664C111.99 705.423 112.523 707.417 112.523 709.446C112.523 711.475 111.99 713.469 110.977 715.228L106.442 723.102C106.314 723.334 106.126 723.527 105.898 723.662C105.669 723.796 105.409 723.867 105.144 723.867C104.879 723.867 104.619 723.796 104.39 723.662C104.162 723.527 103.974 723.334 103.845 723.102L99.4961 714.857C98.5922 713.17 98.1192 711.287 98.1192 709.374C98.1192 707.461 98.5922 705.577 99.4961 703.891L103.845 695.77C103.976 695.539 104.165 695.347 104.395 695.214C104.624 695.081 104.885 695.012 105.15 695.014C105.415 695.016 105.675 695.089 105.902 695.226C106.129 695.362 106.316 695.557 106.442 695.79Z" fill="#06C167"/>
<path d="M219.811 529.366C222.816 529.366 225.252 526.93 225.252 523.925C225.252 520.919 222.816 518.483 219.811 518.483C216.805 518.483 214.369 520.919 214.369 523.925C214.369 526.93 216.805 529.366 219.811 529.366Z" fill="#FFE3AC"/>
<path d="M134.228 832.285C137.131 832.285 139.484 829.932 139.484 827.029C139.484 824.126 137.131 821.773 134.228 821.773C131.325 821.773 128.972 824.126 128.972 827.029C128.972 829.932 131.325 832.285 134.228 832.285Z" fill="#FFE3AC"/>
<path d="M32.6913 237.763C34.8656 237.763 36.6283 236.001 36.6283 233.826C36.6283 231.652 34.8656 229.889 32.6913 229.889C30.517 229.889 28.7543 231.652 28.7543 233.826C28.7543 236.001 30.517 237.763 32.6913 237.763Z" fill="#FFE3AC"/>
<path d="M20.901 28.8573C24.2706 28.8573 27.0023 26.1256 27.0023 22.756C27.0023 19.3864 24.2706 16.6548 20.901 16.6548C17.5313 16.6548 14.7997 19.3864 14.7997 22.756C14.7997 26.1256 17.5313 28.8573 20.901 28.8573Z" fill="#FFE3AC"/>
<path d="M136.351 269.259H161.56V277.195H136.351V269.259ZM501.871 802.129H514.98V821.773H501.871V802.129ZM316.153 405.033L323.986 394.953C324.213 394.675 324.338 394.328 324.34 393.969C324.341 393.61 324.22 393.261 323.995 392.981C323.771 392.701 323.457 392.507 323.106 392.431C322.756 392.354 322.389 392.401 322.069 392.562L310.485 397.818C301.612 401.937 292.018 404.276 282.246 404.703C269.826 405.254 258.043 410.355 249.141 419.032C240.239 427.71 234.84 439.359 233.971 451.761L233.023 465.282L246.401 467.344C258.686 469.29 271.258 466.646 281.72 459.918C292.182 453.189 299.801 442.846 303.126 430.86C305.764 421.492 310.187 412.722 316.153 405.033Z" fill="#05A357"/>
<path d="M233.229 468.58L281.112 427.108L229.931 464.458C229.643 464.667 229.4 464.932 229.218 465.238C229.036 465.544 228.918 465.884 228.872 466.237C228.825 466.591 228.852 466.949 228.949 467.292C229.046 467.635 229.212 467.954 229.437 468.23C229.658 468.508 229.934 468.739 230.247 468.908C230.56 469.077 230.904 469.181 231.258 469.214C231.613 469.247 231.97 469.208 232.309 469.099C232.647 468.99 232.961 468.813 233.229 468.58Z" fill="#156A41"/>
</g>
<defs>
<clipPath id="clip0">
<rect width="968" height="855" fill="white"/>
</clipPath>
</defs>
</svg>
